# Tiled2Unity generated file. Do not modify by hand.
# Wavefront file for 'mine5-7120-10x10_mesh_0006.obj'

# Vertices (Count = 36)
v -16 -16 0
v -32 -16 0
v -32 0 0
v -16 0 0
v -32 -16 0
v -48 -16 0
v -48 0 0
v -32 0 0
v -48 -16 0
v -64 -16 0
v -64 0 0
v -48 0 0
v -16 -64 0
v -32 -64 0
v -32 -48 0
v -16 -48 0
v -32 -64 0
v -48 -64 0
v -48 -48 0
v -32 -48 0
v -48 -64 0
v -64 -64 0
v -64 -48 0
v -48 -48 0
v -16 -80 0
v -32 -80 0
v -32 -64 0
v -16 -64 0
v -16 -112 0
v -32 -112 0
v -32 -96 0
v -16 -96 0
v 0 -144 0
v -16 -144 0
v -16 -128 0
v 0 -128 0

# Texture cooridinates (Count = 9)
vt 0.1944444 0.7777778
vt 0.2222222 0.7777778
vt 0.2222222 0.8055556
vt 0.1944444 0.8055556
vt 0.25 0.7777778
vt 0.25 0.8055556
vt 0.1666667 0.75
vt 0.1944444 0.75
vt 0.1666667 0.7777778

# Normal
vn 0 0 -1

# Mesh description
g mine5-7120-10x10_mesh_0006

# Faces
f 1/1/1 2/2/1 3/3/1 4/4/1
f 5/1/1 6/2/1 7/3/1 8/4/1
f 9/2/1 10/5/1 11/6/1 12/3/1
f 13/1/1 14/2/1 15/3/1 16/4/1
f 17/1/1 18/2/1 19/3/1 20/4/1
f 21/2/1 22/5/1 23/6/1 24/3/1
f 25/7/1 26/8/1 27/1/1 28/9/1
f 29/7/1 30/8/1 31/1/1 32/9/1
f 33/7/1 34/8/1 35/1/1 36/9/1

