# Tiled2Unity generated file. Do not modify by hand.
# Wavefront file for 'caveroom10_mesh_0002.obj'

# Vertices (Count = 64)
v -96 -32 0
v -112 -32 0
v -112 -16 0
v -96 -16 0
v -128 -32 0
v -144 -32 0
v -144 -16 0
v -128 -16 0
v -64 -48 0
v -80 -48 0
v -80 -32 0
v -64 -32 0
v -112 -48 0
v -128 -48 0
v -128 -32 0
v -112 -32 0
v -80 -64 0
v -96 -64 0
v -96 -48 0
v -80 -48 0
v -80 -80 0
v -96 -80 0
v -96 -64 0
v -80 -64 0
v -32 -96 0
v -48 -96 0
v -48 -80 0
v -32 -80 0
v -80 -96 0
v -96 -96 0
v -96 -80 0
v -80 -80 0
v -32 -112 0
v -48 -112 0
v -48 -96 0
v -32 -96 0
v -96 -112 0
v -112 -112 0
v -112 -96 0
v -96 -96 0
v -48 -128 0
v -64 -128 0
v -64 -112 0
v -48 -112 0
v 0 -144 0
v -16 -144 0
v -16 -128 0
v 0 -128 0
v -16 -144 0
v -32 -144 0
v -32 -128 0
v -16 -128 0
v -64 -144 0
v -80 -144 0
v -80 -128 0
v -64 -128 0
v -80 -144 0
v -96 -144 0
v -96 -128 0
v -80 -128 0
v -80 -160 0
v -96 -160 0
v -96 -144 0
v -80 -144 0

# Texture cooridinates (Count = 14)
vt 0.02777778 0.9722222
vt 0.05555556 0.9722222
vt 0.05555556 1
vt 0.02777778 1
vt 0.02777778 0.9166667
vt 0.05555556 0.9166667
vt 0.05555556 0.9444444
vt 0.02777778 0.9444444
vt 0.08333334 0.9444444
vt 0.08333334 0.9722222
vt 0 0.9444444
vt 0 0.9722222
vt 0.08333334 0.9166667
vt 0 0.9166667

# Normal
vn 0 0 -1

# Mesh description
g caveroom10_mesh_0002

# Faces
f 1/1/1 2/2/1 3/3/1 4/4/1
f 5/5/1 6/6/1 7/7/1 8/8/1
f 9/1/1 10/2/1 11/3/1 12/4/1
f 13/7/1 14/9/1 15/10/1 16/2/1
f 17/5/1 18/6/1 19/7/1 20/8/1
f 21/11/1 22/8/1 23/1/1 24/12/1
f 25/1/1 26/2/1 27/3/1 28/4/1
f 29/1/1 30/2/1 31/3/1 32/4/1
f 33/5/1 34/6/1 35/7/1 36/8/1
f 37/6/1 38/13/1 39/9/1 40/7/1
f 41/11/1 42/8/1 43/1/1 44/12/1
f 45/14/1 46/5/1 47/8/1 48/11/1
f 49/5/1 50/6/1 51/7/1 52/8/1
f 53/5/1 54/6/1 55/7/1 56/8/1
f 57/6/1 58/13/1 59/9/1 60/7/1
f 61/6/1 62/13/1 63/9/1 64/7/1

