# Tiled2Unity generated file. Do not modify by hand.
# Wavefront file for 'caveroom10_mesh_0007.obj'

# Vertices (Count = 8)
v -16 -16 0
v -32 -16 0
v -32 0 0
v -16 0 0
v -16 -32 0
v -32 -32 0
v -32 -16 0
v -16 -16 0

# Texture cooridinates (Count = 6)
vt 0.4722222 0.9722222
vt 0.5 0.9722222
vt 0.5 1
vt 0.4722222 1
vt 0.4722222 0.9444444
vt 0.5 0.9444444

# Normal
vn 0 0 -1

# Mesh description
g caveroom10_mesh_0007

# Faces
f 1/1/1 2/2/1 3/3/1 4/4/1
f 5/5/1 6/6/1 7/2/1 8/1/1

