# Tiled2Unity generated file. Do not modify by hand.
# Wavefront file for 'caveroom10_mesh_0004.obj'

# Vertices (Count = 20)
v 0 -48 0
v -16 -48 0
v -16 -32 0
v 0 -32 0
v -16 -48 0
v -32 -48 0
v -32 -32 0
v -16 -32 0
v -32 -48 0
v -48 -48 0
v -48 -32 0
v -32 -32 0
v -128 -80 0
v -144 -80 0
v -144 -64 0
v -128 -64 0
v -144 -80 0
v -160 -80 0
v -160 -64 0
v -144 -64 0

# Texture cooridinates (Count = 7)
vt 0.3055556 0.9444444
vt 0.3333333 0.9444444
vt 0.3333333 0.9722222
vt 0.3055556 0.9722222
vt 0.2777778 0.9166667
vt 0.3055556 0.9166667
vt 0.2777778 0.9444444

# Normal
vn 0 0 -1

# Mesh description
g caveroom10_mesh_0004

# Faces
f 1/1/1 2/2/1 3/3/1 4/4/1
f 5/5/1 6/6/1 7/1/1 8/7/1
f 9/5/1 10/6/1 11/1/1 12/7/1
f 13/5/1 14/6/1 15/1/1 16/7/1
f 17/5/1 18/6/1 19/1/1 20/7/1

