# Tiled2Unity generated file. Do not modify by hand.
# Wavefront file for 'caveroom9_mesh_0005.obj'

# Vertices (Count = 20)
v -16 -32 0
v -32 -32 0
v -32 -16 0
v -16 -16 0
v -144 -64 0
v -160 -64 0
v -160 -48 0
v -144 -48 0
v -16 -112 0
v -32 -112 0
v -32 -96 0
v -16 -96 0
v -32 -112 0
v -48 -112 0
v -48 -96 0
v -32 -96 0
v -112 -160 0
v -128 -160 0
v -128 -144 0
v -112 -144 0

# Texture cooridinates (Count = 4)
vt 0.4166667 0.9444444
vt 0.4444444 0.9444444
vt 0.4444444 0.9722222
vt 0.4166667 0.9722222

# Normal
vn 0 0 -1

# Mesh description
g caveroom9_mesh_0005

# Faces
f 1/1/1 2/2/1 3/3/1 4/4/1
f 5/1/1 6/2/1 7/3/1 8/4/1
f 9/1/1 10/2/1 11/3/1 12/4/1
f 13/1/1 14/2/1 15/3/1 16/4/1
f 17/1/1 18/2/1 19/3/1 20/4/1

