# Tiled2Unity generated file. Do not modify by hand.
# Wavefront file for 'mine1-3745-10x10_mesh_0003.obj'

# Vertices (Count = 100)
v 0 -16 0
v -16 -16 0
v -16 0 0
v 0 0 0
v -144 -16 0
v -160 -16 0
v -160 0 0
v -144 0 0
v 0 -32 0
v -16 -32 0
v -16 -16 0
v 0 -16 0
v -144 -32 0
v -160 -32 0
v -160 -16 0
v -144 -16 0
v 0 -48 0
v -16 -48 0
v -16 -32 0
v 0 -32 0
v -144 -48 0
v -160 -48 0
v -160 -32 0
v -144 -32 0
v 0 -64 0
v -16 -64 0
v -16 -48 0
v 0 -48 0
v -16 -64 0
v -32 -64 0
v -32 -48 0
v -16 -48 0
v -32 -64 0
v -48 -64 0
v -48 -48 0
v -32 -48 0
v -48 -64 0
v -64 -64 0
v -64 -48 0
v -48 -48 0
v -144 -64 0
v -160 -64 0
v -160 -48 0
v -144 -48 0
v -64 -112 0
v -80 -112 0
v -80 -96 0
v -64 -96 0
v -80 -112 0
v -96 -112 0
v -96 -96 0
v -80 -96 0
v -96 -112 0
v -112 -112 0
v -112 -96 0
v -96 -96 0
v -112 -112 0
v -128 -112 0
v -128 -96 0
v -112 -96 0
v 0 -128 0
v -16 -128 0
v -16 -112 0
v 0 -112 0
v 0 -144 0
v -16 -144 0
v -16 -128 0
v 0 -128 0
v -16 -144 0
v -32 -144 0
v -32 -128 0
v -16 -128 0
v 0 -160 0
v -16 -160 0
v -16 -144 0
v 0 -144 0
v -16 -160 0
v -32 -160 0
v -32 -144 0
v -16 -144 0
v -32 -160 0
v -48 -160 0
v -48 -144 0
v -32 -144 0
v -48 -160 0
v -64 -160 0
v -64 -144 0
v -48 -144 0
v -64 -160 0
v -80 -160 0
v -80 -144 0
v -64 -144 0
v -128 -160 0
v -144 -160 0
v -144 -144 0
v -128 -144 0
v -144 -160 0
v -160 -160 0
v -160 -144 0
v -144 -144 0

# Texture cooridinates (Count = 11)
vt 0.1111111 0.8055556
vt 0.1388889 0.8055556
vt 0.1388889 0.8333333
vt 0.1111111 0.8333333
vt 0.1388889 0.7777778
vt 0.1666667 0.7777778
vt 0.1666667 0.8055556
vt 0.3888889 0.7777778
vt 0.4166667 0.7777778
vt 0.4166667 0.8055556
vt 0.3888889 0.8055556

# Normal
vn 0 0 -1

# Mesh description
g mine1-3745-10x10_mesh_0003

# Faces
f 1/1/1 2/2/1 3/3/1 4/4/1
f 5/1/1 6/2/1 7/3/1 8/4/1
f 9/5/1 10/6/1 11/7/1 12/2/1
f 13/5/1 14/6/1 15/7/1 16/2/1
f 17/5/1 18/6/1 19/7/1 20/2/1
f 21/1/1 22/2/1 23/3/1 24/4/1
f 25/8/1 26/9/1 27/10/1 28/11/1
f 29/8/1 30/9/1 31/10/1 32/11/1
f 33/8/1 34/9/1 35/10/1 36/11/1
f 37/8/1 38/9/1 39/10/1 40/11/1
f 41/1/1 42/2/1 43/3/1 44/4/1
f 45/8/1 46/9/1 47/10/1 48/11/1
f 49/8/1 50/9/1 51/10/1 52/11/1
f 53/8/1 54/9/1 55/10/1 56/11/1
f 57/8/1 58/9/1 59/10/1 60/11/1
f 61/1/1 62/2/1 63/3/1 64/4/1
f 65/1/1 66/2/1 67/3/1 68/4/1
f 69/1/1 70/2/1 71/3/1 72/4/1
f 73/1/1 74/2/1 75/3/1 76/4/1
f 77/1/1 78/2/1 79/3/1 80/4/1
f 81/1/1 82/2/1 83/3/1 84/4/1
f 85/5/1 86/6/1 87/7/1 88/2/1
f 89/5/1 90/6/1 91/7/1 92/2/1
f 93/1/1 94/2/1 95/3/1 96/4/1
f 97/1/1 98/2/1 99/3/1 100/4/1

