# Tiled2Unity generated file. Do not modify by hand.
# Wavefront file for 'mine1-3745-10x10_mesh_0007.obj'

# Vertices (Count = 16)
v -16 -48 0
v -32 -48 0
v -32 -32 0
v -16 -32 0
v -96 -96 0
v -112 -96 0
v -112 -80 0
v -96 -80 0
v -16 -112 0
v -32 -112 0
v -32 -96 0
v -16 -96 0
v -16 -128 0
v -32 -128 0
v -32 -112 0
v -16 -112 0

# Texture cooridinates (Count = 14)
vt 0.8611111 0.9722222
vt 0.8888889 0.9722222
vt 0.8888889 1
vt 0.8611111 1
vt 0.1944444 0.9722222
vt 0.2222222 0.9722222
vt 0.2222222 1
vt 0.1944444 1
vt 0.4722222 0.9722222
vt 0.5 0.9722222
vt 0.5 1
vt 0.4722222 1
vt 0.4722222 0.9444444
vt 0.5 0.9444444

# Normal
vn 0 0 -1

# Mesh description
g mine1-3745-10x10_mesh_0007

# Faces
f 1/1/1 2/2/1 3/3/1 4/4/1
f 5/5/1 6/6/1 7/7/1 8/8/1
f 9/9/1 10/10/1 11/11/1 12/12/1
f 13/13/1 14/14/1 15/10/1 16/9/1

