# Tiled2Unity generated file. Do not modify by hand.
# Wavefront file for 'caveroom1_mesh_0002.obj'

# Vertices (Count = 24)
v -112 -32 0
v -128 -32 0
v -128 -16 0
v -112 -16 0
v -16 -48 0
v -32 -48 0
v -32 -32 0
v -16 -32 0
v -80 -48 0
v -96 -48 0
v -96 -32 0
v -80 -32 0
v -128 -48 0
v -144 -48 0
v -144 -32 0
v -128 -32 0
v -112 -80 0
v -128 -80 0
v -128 -64 0
v -112 -64 0
v -128 -96 0
v -144 -96 0
v -144 -80 0
v -128 -80 0

# Texture cooridinates (Count = 12)
vt 0.02777778 0.9722222
vt 0.05555556 0.9722222
vt 0.05555556 1
vt 0.02777778 1
vt 0 0.9166667
vt 0.02777778 0.9166667
vt 0.02777778 0.9444444
vt 0 0.9444444
vt 0.05555556 0.9166667
vt 0.08333334 0.9166667
vt 0.08333334 0.9444444
vt 0.05555556 0.9444444

# Normal
vn 0 0 -1

# Mesh description
g caveroom1_mesh_0002

# Faces
f 1/1/1 2/2/1 3/3/1 4/4/1
f 5/5/1 6/6/1 7/7/1 8/8/1
f 9/9/1 10/10/1 11/11/1 12/12/1
f 13/9/1 14/10/1 15/11/1 16/12/1
f 17/5/1 18/6/1 19/7/1 20/8/1
f 21/9/1 22/10/1 23/11/1 24/12/1

