# Tiled2Unity generated file. Do not modify by hand.
# Wavefront file for 'caveroom1_mesh_0004.obj'

# Vertices (Count = 76)
v -64 -16 0
v -80 -16 0
v -80 0 0
v -64 0 0
v -80 -16 0
v -96 -16 0
v -96 0 0
v -80 0 0
v -112 -16 0
v -128 -16 0
v -128 0 0
v -112 0 0
v -128 -16 0
v -144 -16 0
v -144 0 0
v -128 0 0
v -16 -32 0
v -32 -32 0
v -32 -16 0
v -16 -16 0
v -32 -32 0
v -48 -32 0
v -48 -16 0
v -32 -16 0
v -48 -32 0
v -64 -32 0
v -64 -16 0
v -48 -16 0
v -112 -64 0
v -128 -64 0
v -128 -48 0
v -112 -48 0
v -128 -64 0
v -144 -64 0
v -144 -48 0
v -128 -48 0
v -144 -96 0
v -160 -96 0
v -160 -80 0
v -144 -80 0
v 0 -112 0
v -16 -112 0
v -16 -96 0
v 0 -96 0
v -32 -128 0
v -48 -128 0
v -48 -112 0
v -32 -112 0
v -64 -144 0
v -80 -144 0
v -80 -128 0
v -64 -128 0
v -80 -144 0
v -96 -144 0
v -96 -128 0
v -80 -128 0
v -112 -144 0
v -128 -144 0
v -128 -128 0
v -112 -128 0
v 0 -160 0
v -16 -160 0
v -16 -144 0
v 0 -144 0
v -16 -160 0
v -32 -160 0
v -32 -144 0
v -16 -144 0
v -128 -160 0
v -144 -160 0
v -144 -144 0
v -128 -144 0
v -144 -160 0
v -160 -160 0
v -160 -144 0
v -144 -144 0

# Texture cooridinates (Count = 7)
vt 0.3055556 0.9444444
vt 0.3333333 0.9444444
vt 0.3333333 0.9722222
vt 0.3055556 0.9722222
vt 0.2777778 0.9166667
vt 0.3055556 0.9166667
vt 0.2777778 0.9444444

# Normal
vn 0 0 -1

# Mesh description
g caveroom1_mesh_0004

# Faces
f 1/1/1 2/2/1 3/3/1 4/4/1
f 5/1/1 6/2/1 7/3/1 8/4/1
f 9/1/1 10/2/1 11/3/1 12/4/1
f 13/1/1 14/2/1 15/3/1 16/4/1
f 17/1/1 18/2/1 19/3/1 20/4/1
f 21/1/1 22/2/1 23/3/1 24/4/1
f 25/1/1 26/2/1 27/3/1 28/4/1
f 29/5/1 30/6/1 31/1/1 32/7/1
f 33/5/1 34/6/1 35/1/1 36/7/1
f 37/1/1 38/2/1 39/3/1 40/4/1
f 41/1/1 42/2/1 43/3/1 44/4/1
f 45/5/1 46/6/1 47/1/1 48/7/1
f 49/5/1 50/6/1 51/1/1 52/7/1
f 53/5/1 54/6/1 55/1/1 56/7/1
f 57/5/1 58/6/1 59/1/1 60/7/1
f 61/5/1 62/6/1 63/1/1 64/7/1
f 65/5/1 66/6/1 67/1/1 68/7/1
f 69/5/1 70/6/1 71/1/1 72/7/1
f 73/5/1 74/6/1 75/1/1 76/7/1

