# Tiled2Unity generated file. Do not modify by hand.
# Wavefront file for 'caveroom8_mesh_0002.obj'

# Vertices (Count = 60)
v 0 -32 0
v -16 -32 0
v -16 -16 0
v 0 -16 0
v -32 -32 0
v -48 -32 0
v -48 -16 0
v -32 -16 0
v -64 -32 0
v -80 -32 0
v -80 -16 0
v -64 -16 0
v 0 -48 0
v -16 -48 0
v -16 -32 0
v 0 -32 0
v -16 -48 0
v -32 -48 0
v -32 -32 0
v -16 -32 0
v -32 -48 0
v -48 -48 0
v -48 -32 0
v -32 -32 0
v -112 -48 0
v -128 -48 0
v -128 -32 0
v -112 -32 0
v -16 -64 0
v -32 -64 0
v -32 -48 0
v -16 -48 0
v -128 -64 0
v -144 -64 0
v -144 -48 0
v -128 -48 0
v -144 -64 0
v -160 -64 0
v -160 -48 0
v -144 -48 0
v -64 -144 0
v -80 -144 0
v -80 -128 0
v -64 -128 0
v -80 -144 0
v -96 -144 0
v -96 -128 0
v -80 -128 0
v -96 -144 0
v -112 -144 0
v -112 -128 0
v -96 -128 0
v -128 -144 0
v -144 -144 0
v -144 -128 0
v -128 -128 0
v -96 -160 0
v -112 -160 0
v -112 -144 0
v -96 -144 0

# Texture cooridinates (Count = 9)
vt 0.02777778 0.9166667
vt 0.05555556 0.9166667
vt 0.05555556 0.9444444
vt 0.02777778 0.9444444
vt 0.08333334 0.9444444
vt 0.08333334 0.9722222
vt 0.05555556 0.9722222
vt 0 0.9166667
vt 0 0.9444444

# Normal
vn 0 0 -1

# Mesh description
g caveroom8_mesh_0002

# Faces
f 1/1/1 2/2/1 3/3/1 4/4/1
f 5/1/1 6/2/1 7/3/1 8/4/1
f 9/1/1 10/2/1 11/3/1 12/4/1
f 13/1/1 14/2/1 15/3/1 16/4/1
f 17/1/1 18/2/1 19/3/1 20/4/1
f 21/1/1 22/2/1 23/3/1 24/4/1
f 25/1/1 26/2/1 27/3/1 28/4/1
f 29/1/1 30/2/1 31/3/1 32/4/1
f 33/1/1 34/2/1 35/3/1 36/4/1
f 37/3/1 38/5/1 39/6/1 40/7/1
f 41/8/1 42/1/1 43/4/1 44/9/1
f 45/1/1 46/2/1 47/3/1 48/4/1
f 49/1/1 50/2/1 51/3/1 52/4/1
f 53/1/1 54/2/1 55/3/1 56/4/1
f 57/8/1 58/1/1 59/4/1 60/9/1

