# Tiled2Unity generated file. Do not modify by hand.
# Wavefront file for 'mine2-5777-10x10_mesh_0006.obj'

# Vertices (Count = 48)
v -32 -64 0
v -48 -64 0
v -48 -48 0
v -32 -48 0
v -48 -64 0
v -64 -64 0
v -64 -48 0
v -48 -48 0
v -32 -80 0
v -48 -80 0
v -48 -64 0
v -32 -64 0
v -32 -96 0
v -48 -96 0
v -48 -80 0
v -32 -80 0
v -112 -112 0
v -128 -112 0
v -128 -96 0
v -112 -96 0
v -128 -112 0
v -144 -112 0
v -144 -96 0
v -128 -96 0
v -32 -160 0
v -48 -160 0
v -48 -144 0
v -32 -144 0
v -48 -160 0
v -64 -160 0
v -64 -144 0
v -48 -144 0
v -64 -160 0
v -80 -160 0
v -80 -144 0
v -64 -144 0
v -80 -160 0
v -96 -160 0
v -96 -144 0
v -80 -144 0
v -96 -160 0
v -112 -160 0
v -112 -144 0
v -96 -144 0
v -112 -160 0
v -128 -160 0
v -128 -144 0
v -112 -144 0

# Texture cooridinates (Count = 10)
vt 0.1666667 0.75
vt 0.1944444 0.75
vt 0.1944444 0.7777778
vt 0.1666667 0.7777778
vt 0.2222222 0.7777778
vt 0.25 0.7777778
vt 0.25 0.8055556
vt 0.2222222 0.8055556
vt 0.2222222 0.75
vt 0.25 0.75

# Normal
vn 0 0 -1

# Mesh description
g mine2-5777-10x10_mesh_0006

# Faces
f 1/1/1 2/2/1 3/3/1 4/4/1
f 5/1/1 6/2/1 7/3/1 8/4/1
f 9/1/1 10/2/1 11/3/1 12/4/1
f 13/1/1 14/2/1 15/3/1 16/4/1
f 17/5/1 18/6/1 19/7/1 20/8/1
f 21/5/1 22/6/1 23/7/1 24/8/1
f 25/1/1 26/2/1 27/3/1 28/4/1
f 29/1/1 30/2/1 31/3/1 32/4/1
f 33/1/1 34/2/1 35/3/1 36/4/1
f 37/9/1 38/10/1 39/6/1 40/5/1
f 41/1/1 42/2/1 43/3/1 44/4/1
f 45/1/1 46/2/1 47/3/1 48/4/1

