# Tiled2Unity generated file. Do not modify by hand.
# Wavefront file for 'object-test_mesh_0005.obj'

# Vertices (Count = 8)
v 0 -128 0
v -16 -128 0
v -16 -112 0
v 0 -112 0
v 0 -144 0
v -16 -144 0
v -16 -128 0
v 0 -128 0

# Texture cooridinates (Count = 4)
vt 0.1111111 0.7777778
vt 0.1388889 0.7777778
vt 0.1388889 0.8055556
vt 0.1111111 0.8055556

# Normal
vn 0 0 -1

# Mesh description
g object-test_mesh_0005

# Faces
f 1/1/1 2/2/1 3/3/1 4/4/1
f 5/1/1 6/2/1 7/3/1 8/4/1

