# Tiled2Unity generated file. Do not modify by hand.
# Wavefront file for 'mine11-7030-10x30_mesh_0005.obj'

# Vertices (Count = 456)
v -16 -16 0
v -32 -16 0
v -32 0 0
v -16 0 0
v -48 -32 0
v -64 -32 0
v -64 -16 0
v -48 -16 0
v -80 -32 0
v -96 -32 0
v -96 -16 0
v -80 -16 0
v -96 -32 0
v -112 -32 0
v -112 -16 0
v -96 -16 0
v -112 -32 0
v -128 -32 0
v -128 -16 0
v -112 -16 0
v -128 -32 0
v -144 -32 0
v -144 -16 0
v -128 -16 0
v -48 -48 0
v -64 -48 0
v -64 -32 0
v -48 -32 0
v -80 -48 0
v -96 -48 0
v -96 -32 0
v -80 -32 0
v -96 -48 0
v -112 -48 0
v -112 -32 0
v -96 -32 0
v -112 -48 0
v -128 -48 0
v -128 -32 0
v -112 -32 0
v -128 -48 0
v -144 -48 0
v -144 -32 0
v -128 -32 0
v -80 -64 0
v -96 -64 0
v -96 -48 0
v -80 -48 0
v -96 -64 0
v -112 -64 0
v -112 -48 0
v -96 -48 0
v -112 -64 0
v -128 -64 0
v -128 -48 0
v -112 -48 0
v -128 -64 0
v -144 -64 0
v -144 -48 0
v -128 -48 0
v -144 -64 0
v -160 -64 0
v -160 -48 0
v -144 -48 0
v -16 -80 0
v -32 -80 0
v -32 -64 0
v -16 -64 0
v -80 -80 0
v -96 -80 0
v -96 -64 0
v -80 -64 0
v -96 -80 0
v -112 -80 0
v -112 -64 0
v -96 -64 0
v -112 -80 0
v -128 -80 0
v -128 -64 0
v -112 -64 0
v -128 -80 0
v -144 -80 0
v -144 -64 0
v -128 -64 0
v -144 -80 0
v -160 -80 0
v -160 -64 0
v -144 -64 0
v -80 -96 0
v -96 -96 0
v -96 -80 0
v -80 -80 0
v -96 -96 0
v -112 -96 0
v -112 -80 0
v -96 -80 0
v -112 -96 0
v -128 -96 0
v -128 -80 0
v -112 -80 0
v -128 -96 0
v -144 -96 0
v -144 -80 0
v -128 -80 0
v -144 -96 0
v -160 -96 0
v -160 -80 0
v -144 -80 0
v -16 -112 0
v -32 -112 0
v -32 -96 0
v -16 -96 0
v -112 -112 0
v -128 -112 0
v -128 -96 0
v -112 -96 0
v -80 -128 0
v -96 -128 0
v -96 -112 0
v -80 -112 0
v -144 -128 0
v -160 -128 0
v -160 -112 0
v -144 -112 0
v 0 -144 0
v -16 -144 0
v -16 -128 0
v 0 -128 0
v -16 -144 0
v -32 -144 0
v -32 -128 0
v -16 -128 0
v -32 -144 0
v -48 -144 0
v -48 -128 0
v -32 -128 0
v -48 -144 0
v -64 -144 0
v -64 -128 0
v -48 -128 0
v -64 -144 0
v -80 -144 0
v -80 -128 0
v -64 -128 0
v -80 -144 0
v -96 -144 0
v -96 -128 0
v -80 -128 0
v -96 -144 0
v -112 -144 0
v -112 -128 0
v -96 -128 0
v -112 -144 0
v -128 -144 0
v -128 -128 0
v -112 -128 0
v -32 -160 0
v -48 -160 0
v -48 -144 0
v -32 -144 0
v -80 -160 0
v -96 -160 0
v -96 -144 0
v -80 -144 0
v -128 -160 0
v -144 -160 0
v -144 -144 0
v -128 -144 0
v 0 -192 0
v -16 -192 0
v -16 -176 0
v 0 -176 0
v -32 -192 0
v -48 -192 0
v -48 -176 0
v -32 -176 0
v -48 -192 0
v -64 -192 0
v -64 -176 0
v -48 -176 0
v -80 -192 0
v -96 -192 0
v -96 -176 0
v -80 -176 0
v -96 -192 0
v -112 -192 0
v -112 -176 0
v -96 -176 0
v -112 -192 0
v -128 -192 0
v -128 -176 0
v -112 -176 0
v -32 -208 0
v -48 -208 0
v -48 -192 0
v -32 -192 0
v -48 -208 0
v -64 -208 0
v -64 -192 0
v -48 -192 0
v -80 -208 0
v -96 -208 0
v -96 -192 0
v -80 -192 0
v -96 -208 0
v -112 -208 0
v -112 -192 0
v -96 -192 0
v -112 -208 0
v -128 -208 0
v -128 -192 0
v -112 -192 0
v -128 -208 0
v -144 -208 0
v -144 -192 0
v -128 -192 0
v -32 -224 0
v -48 -224 0
v -48 -208 0
v -32 -208 0
v -80 -224 0
v -96 -224 0
v -96 -208 0
v -80 -208 0
v -96 -224 0
v -112 -224 0
v -112 -208 0
v -96 -208 0
v -112 -224 0
v -128 -224 0
v -128 -208 0
v -112 -208 0
v -80 -240 0
v -96 -240 0
v -96 -224 0
v -80 -224 0
v -96 -240 0
v -112 -240 0
v -112 -224 0
v -96 -224 0
v -112 -240 0
v -128 -240 0
v -128 -224 0
v -112 -224 0
v -128 -240 0
v -144 -240 0
v -144 -224 0
v -128 -224 0
v -96 -256 0
v -112 -256 0
v -112 -240 0
v -96 -240 0
v -16 -272 0
v -32 -272 0
v -32 -256 0
v -16 -256 0
v -128 -272 0
v -144 -272 0
v -144 -256 0
v -128 -256 0
v 0 -288 0
v -16 -288 0
v -16 -272 0
v 0 -272 0
v -32 -288 0
v -48 -288 0
v -48 -272 0
v -32 -272 0
v -80 -288 0
v -96 -288 0
v -96 -272 0
v -80 -272 0
v -96 -288 0
v -112 -288 0
v -112 -272 0
v -96 -272 0
v -16 -304 0
v -32 -304 0
v -32 -288 0
v -16 -288 0
v -48 -304 0
v -64 -304 0
v -64 -288 0
v -48 -288 0
v -64 -304 0
v -80 -304 0
v -80 -288 0
v -64 -288 0
v -128 -304 0
v -144 -304 0
v -144 -288 0
v -128 -288 0
v -144 -304 0
v -160 -304 0
v -160 -288 0
v -144 -288 0
v -16 -320 0
v -32 -320 0
v -32 -304 0
v -16 -304 0
v -32 -320 0
v -48 -320 0
v -48 -304 0
v -32 -304 0
v -48 -320 0
v -64 -320 0
v -64 -304 0
v -48 -304 0
v -64 -320 0
v -80 -320 0
v -80 -304 0
v -64 -304 0
v -96 -320 0
v -112 -320 0
v -112 -304 0
v -96 -304 0
v -16 -336 0
v -32 -336 0
v -32 -320 0
v -16 -320 0
v -32 -336 0
v -48 -336 0
v -48 -320 0
v -32 -320 0
v -48 -336 0
v -64 -336 0
v -64 -320 0
v -48 -320 0
v -64 -336 0
v -80 -336 0
v -80 -320 0
v -64 -320 0
v -96 -336 0
v -112 -336 0
v -112 -320 0
v -96 -320 0
v -112 -336 0
v -128 -336 0
v -128 -320 0
v -112 -320 0
v -128 -336 0
v -144 -336 0
v -144 -320 0
v -128 -320 0
v -16 -352 0
v -32 -352 0
v -32 -336 0
v -16 -336 0
v -48 -352 0
v -64 -352 0
v -64 -336 0
v -48 -336 0
v -16 -368 0
v -32 -368 0
v -32 -352 0
v -16 -352 0
v -32 -368 0
v -48 -368 0
v -48 -352 0
v -32 -352 0
v -80 -368 0
v -96 -368 0
v -96 -352 0
v -80 -352 0
v -112 -368 0
v -128 -368 0
v -128 -352 0
v -112 -352 0
v -32 -384 0
v -48 -384 0
v -48 -368 0
v -32 -368 0
v -48 -384 0
v -64 -384 0
v -64 -368 0
v -48 -368 0
v -80 -384 0
v -96 -384 0
v -96 -368 0
v -80 -368 0
v -96 -384 0
v -112 -384 0
v -112 -368 0
v -96 -368 0
v -112 -384 0
v -128 -384 0
v -128 -368 0
v -112 -368 0
v -112 -400 0
v -128 -400 0
v -128 -384 0
v -112 -384 0
v -128 -400 0
v -144 -400 0
v -144 -384 0
v -128 -384 0
v -144 -400 0
v -160 -400 0
v -160 -384 0
v -144 -384 0
v -64 -416 0
v -80 -416 0
v -80 -400 0
v -64 -400 0
v -112 -416 0
v -128 -416 0
v -128 -400 0
v -112 -400 0
v -128 -416 0
v -144 -416 0
v -144 -400 0
v -128 -400 0
v -32 -432 0
v -48 -432 0
v -48 -416 0
v -32 -416 0
v -112 -432 0
v -128 -432 0
v -128 -416 0
v -112 -416 0
v -16 -448 0
v -32 -448 0
v -32 -432 0
v -16 -432 0
v -32 -448 0
v -48 -448 0
v -48 -432 0
v -32 -432 0
v -80 -448 0
v -96 -448 0
v -96 -432 0
v -80 -432 0
v -112 -448 0
v -128 -448 0
v -128 -432 0
v -112 -432 0
v -128 -448 0
v -144 -448 0
v -144 -432 0
v -128 -432 0
v -80 -464 0
v -96 -464 0
v -96 -448 0
v -80 -448 0
v -96 -464 0
v -112 -464 0
v -112 -448 0
v -96 -448 0
v -112 -464 0
v -128 -464 0
v -128 -448 0
v -112 -448 0
v -16 -480 0
v -32 -480 0
v -32 -464 0
v -16 -464 0

# Texture cooridinates (Count = 62)
vt 0.4722222 0.75
vt 0.5 0.75
vt 0.5 0.7777778
vt 0.4722222 0.7777778
vt 0.2222222 0.8055556
vt 0.25 0.8055556
vt 0.25 0.8333333
vt 0.2222222 0.8333333
vt 0.25 0.8611111
vt 0.2222222 0.8611111
vt 0.4444444 0.8055556
vt 0.4722222 0.8055556
vt 0.4722222 0.8333333
vt 0.4444444 0.8333333
vt 0.3055556 0.7777778
vt 0.3333333 0.7777778
vt 0.3333333 0.8055556
vt 0.3055556 0.8055556
vt 0.25 0.75
vt 0.2777778 0.75
vt 0.2777778 0.7777778
vt 0.25 0.7777778
vt 0.3055556 0.8333333
vt 0.3333333 0.8333333
vt 0.3333333 0.8611111
vt 0.3055556 0.8611111
vt 0.3611111 0.8333333
vt 0.3611111 0.8611111
vt 0.3333333 0.9444444
vt 0.3611111 0.9444444
vt 0.3611111 0.9722222
vt 0.3333333 0.9722222
vt 0.5 0.8055556
vt 0.5 0.8333333
vt 0.5833333 0.6944444
vt 0.6111111 0.6944444
vt 0.6111111 0.7222222
vt 0.5833333 0.7222222
vt 0.5555556 0.6944444
vt 0.5555556 0.7222222
vt 0.7777778 0.6111111
vt 0.8055556 0.6111111
vt 0.8055556 0.6388889
vt 0.7777778 0.6388889
vt 0.5277778 0.6388889
vt 0.5555556 0.6388889
vt 0.5555556 0.6666666
vt 0.5277778 0.6666666
vt 0.5277778 0.6111111
vt 0.5555556 0.6111111
vt 0.5833333 0.6111111
vt 0.6111111 0.6111111
vt 0.6111111 0.6388889
vt 0.5833333 0.6388889
vt 0.1944444 0.8333333
vt 0.1944444 0.8611111
vt 0.6388889 0.6111111
vt 0.6388889 0.6388889
vt 0.3888889 0.9444444
vt 0.3888889 0.9722222
vt 0.5 0.8611111
vt 0.4722222 0.8611111

# Normal
vn 0 0 -1

# Mesh description
g mine11-7030-10x30_mesh_0005

# Faces
f 1/1/1 2/2/1 3/3/1 4/4/1
f 5/5/1 6/6/1 7/7/1 8/8/1
f 9/8/1 10/7/1 11/9/1 12/10/1
f 13/5/1 14/6/1 15/7/1 16/8/1
f 17/8/1 18/7/1 19/9/1 20/10/1
f 21/5/1 22/6/1 23/7/1 24/8/1
f 25/5/1 26/6/1 27/7/1 28/8/1
f 29/8/1 30/7/1 31/9/1 32/10/1
f 33/8/1 34/7/1 35/9/1 36/10/1
f 37/8/1 38/7/1 39/9/1 40/10/1
f 41/5/1 42/6/1 43/7/1 44/8/1
f 45/5/1 46/6/1 47/7/1 48/8/1
f 49/8/1 50/7/1 51/9/1 52/10/1
f 53/8/1 54/7/1 55/9/1 56/10/1
f 57/5/1 58/6/1 59/7/1 60/8/1
f 61/11/1 62/12/1 63/13/1 64/14/1
f 65/1/1 66/2/1 67/3/1 68/4/1
f 69/8/1 70/7/1 71/9/1 72/10/1
f 73/8/1 74/7/1 75/9/1 76/10/1
f 77/8/1 78/7/1 79/9/1 80/10/1
f 81/5/1 82/6/1 83/7/1 84/8/1
f 85/5/1 86/6/1 87/7/1 88/8/1
f 89/8/1 90/7/1 91/9/1 92/10/1
f 93/8/1 94/7/1 95/9/1 96/10/1
f 97/5/1 98/6/1 99/7/1 100/8/1
f 101/5/1 102/6/1 103/7/1 104/8/1
f 105/5/1 106/6/1 107/7/1 108/8/1
f 109/11/1 110/12/1 111/13/1 112/14/1
f 113/1/1 114/2/1 115/3/1 116/4/1
f 117/15/1 118/16/1 119/17/1 120/18/1
f 121/19/1 122/20/1 123/21/1 124/22/1
f 125/23/1 126/24/1 127/25/1 128/26/1
f 129/23/1 130/24/1 131/25/1 132/26/1
f 133/24/1 134/27/1 135/28/1 136/25/1
f 137/23/1 138/24/1 139/25/1 140/26/1
f 141/23/1 142/24/1 143/25/1 144/26/1
f 145/23/1 146/24/1 147/25/1 148/26/1
f 149/23/1 150/24/1 151/25/1 152/26/1
f 153/24/1 154/27/1 155/28/1 156/25/1
f 157/29/1 158/30/1 159/31/1 160/32/1
f 161/1/1 162/2/1 163/3/1 164/4/1
f 165/4/1 166/3/1 167/33/1 168/12/1
f 169/12/1 170/33/1 171/34/1 172/13/1
f 173/8/1 174/7/1 175/9/1 176/10/1
f 177/5/1 178/6/1 179/7/1 180/8/1
f 181/8/1 182/7/1 183/9/1 184/10/1
f 185/8/1 186/7/1 187/9/1 188/10/1
f 189/5/1 190/6/1 191/7/1 192/8/1
f 193/5/1 194/6/1 195/7/1 196/8/1
f 197/5/1 198/6/1 199/7/1 200/8/1
f 201/8/1 202/7/1 203/9/1 204/10/1
f 205/8/1 206/7/1 207/9/1 208/10/1
f 209/8/1 210/7/1 211/9/1 212/10/1
f 213/5/1 214/6/1 215/7/1 216/8/1
f 217/1/1 218/2/1 219/3/1 220/4/1
f 221/8/1 222/7/1 223/9/1 224/10/1
f 225/8/1 226/7/1 227/9/1 228/10/1
f 229/8/1 230/7/1 231/9/1 232/10/1
f 233/8/1 234/7/1 235/9/1 236/10/1
f 237/5/1 238/6/1 239/7/1 240/8/1
f 241/8/1 242/7/1 243/9/1 244/10/1
f 245/12/1 246/33/1 247/34/1 248/13/1
f 249/1/1 250/2/1 251/3/1 252/4/1
f 253/35/1 254/36/1 255/37/1 256/38/1
f 257/35/1 258/36/1 259/37/1 260/38/1
f 261/35/1 262/36/1 263/37/1 264/38/1
f 265/35/1 266/36/1 267/37/1 268/38/1
f 269/35/1 270/36/1 271/37/1 272/38/1
f 273/39/1 274/35/1 275/38/1 276/40/1
f 277/8/1 278/7/1 279/9/1 280/10/1
f 281/8/1 282/7/1 283/9/1 284/10/1
f 285/8/1 286/7/1 287/9/1 288/10/1
f 289/41/1 290/42/1 291/43/1 292/44/1
f 293/35/1 294/36/1 295/37/1 296/38/1
f 297/5/1 298/6/1 299/7/1 300/8/1
f 301/8/1 302/7/1 303/9/1 304/10/1
f 305/8/1 306/7/1 307/9/1 308/10/1
f 309/8/1 310/7/1 311/9/1 312/10/1
f 313/45/1 314/46/1 315/47/1 316/48/1
f 317/8/1 318/7/1 319/9/1 320/10/1
f 321/8/1 322/7/1 323/9/1 324/10/1
f 325/5/1 326/6/1 327/7/1 328/8/1
f 329/8/1 330/7/1 331/9/1 332/10/1
f 333/49/1 334/50/1 335/46/1 336/45/1
f 337/51/1 338/52/1 339/53/1 340/54/1
f 341/49/1 342/50/1 343/46/1 344/45/1
f 345/5/1 346/6/1 347/7/1 348/8/1
f 349/55/1 350/8/1 351/10/1 352/56/1
f 353/57/1 354/52/1 355/53/1 356/58/1
f 357/55/1 358/8/1 359/10/1 360/56/1
f 361/46/1 362/45/1 363/48/1 364/47/1
f 365/5/1 366/6/1 367/7/1 368/8/1
f 369/51/1 370/50/1 371/46/1 372/54/1
f 373/30/1 374/59/1 375/60/1 376/31/1
f 377/50/1 378/49/1 379/45/1 380/46/1
f 381/30/1 382/29/1 383/32/1 384/31/1
f 385/5/1 386/6/1 387/7/1 388/8/1
f 389/8/1 390/7/1 391/9/1 392/10/1
f 393/13/1 394/34/1 395/61/1 396/62/1
f 397/41/1 398/42/1 399/43/1 400/44/1
f 401/45/1 402/46/1 403/47/1 404/48/1
f 405/8/1 406/7/1 407/9/1 408/10/1
f 409/13/1 410/34/1 411/61/1 412/62/1
f 413/45/1 414/46/1 415/47/1 416/48/1
f 417/5/1 418/6/1 419/7/1 420/8/1
f 421/52/1 422/57/1 423/58/1 424/53/1
f 425/49/1 426/50/1 427/46/1 428/45/1
f 429/50/1 430/51/1 431/54/1 432/46/1
f 433/5/1 434/6/1 435/7/1 436/8/1
f 437/49/1 438/50/1 439/46/1 440/45/1
f 441/41/1 442/42/1 443/43/1 444/44/1
f 445/50/1 446/51/1 447/54/1 448/46/1
f 449/5/1 450/6/1 451/7/1 452/8/1
f 453/41/1 454/42/1 455/43/1 456/44/1

