# Tiled2Unity generated file. Do not modify by hand.
# Wavefront file for 'caveroom2_mesh_0006.obj'

# Vertices (Count = 12)
v -96 -48 0
v -112 -48 0
v -112 -32 0
v -96 -32 0
v -112 -48 0
v -128 -48 0
v -128 -32 0
v -112 -32 0
v -128 -48 0
v -144 -48 0
v -144 -32 0
v -128 -32 0

# Texture cooridinates (Count = 4)
vt 0.4444444 0.8888889
vt 0.4722222 0.8888889
vt 0.4722222 0.9166667
vt 0.4444444 0.9166667

# Normal
vn 0 0 -1

# Mesh description
g caveroom2_mesh_0006

# Faces
f 1/1/1 2/2/1 3/3/1 4/4/1
f 5/1/1 6/2/1 7/3/1 8/4/1
f 9/1/1 10/2/1 11/3/1 12/4/1

