# Tiled2Unity generated file. Do not modify by hand.
# Wavefront file for 'cave11-4100-3x1_mesh_0007.obj'

# Vertices (Count = 104)
v -112 -32 0
v -128 -32 0
v -128 -16 0
v -112 -16 0
v -272 -32 0
v -288 -32 0
v -288 -16 0
v -272 -16 0
v -448 -32 0
v -464 -32 0
v -464 -16 0
v -448 -16 0
v -160 -48 0
v -176 -48 0
v -176 -32 0
v -160 -32 0
v -176 -48 0
v -192 -48 0
v -192 -32 0
v -176 -32 0
v -80 -64 0
v -96 -64 0
v -96 -48 0
v -80 -48 0
v -160 -64 0
v -176 -64 0
v -176 -48 0
v -160 -48 0
v -176 -64 0
v -192 -64 0
v -192 -48 0
v -176 -48 0
v -320 -64 0
v -336 -64 0
v -336 -48 0
v -320 -48 0
v -368 -64 0
v -384 -64 0
v -384 -48 0
v -368 -48 0
v -384 -64 0
v -400 -64 0
v -400 -48 0
v -384 -48 0
v -416 -64 0
v -432 -64 0
v -432 -48 0
v -416 -48 0
v -16 -80 0
v -32 -80 0
v -32 -64 0
v -16 -64 0
v -112 -80 0
v -128 -80 0
v -128 -64 0
v -112 -64 0
v -256 -80 0
v -272 -80 0
v -272 -64 0
v -256 -64 0
v -144 -96 0
v -160 -96 0
v -160 -80 0
v -144 -80 0
v -176 -112 0
v -192 -112 0
v -192 -96 0
v -176 -96 0
v -448 -112 0
v -464 -112 0
v -464 -96 0
v -448 -96 0
v -128 -128 0
v -144 -128 0
v -144 -112 0
v -128 -112 0
v -256 -128 0
v -272 -128 0
v -272 -112 0
v -256 -112 0
v -272 -128 0
v -288 -128 0
v -288 -112 0
v -272 -112 0
v -336 -128 0
v -352 -128 0
v -352 -112 0
v -336 -112 0
v -368 -128 0
v -384 -128 0
v -384 -112 0
v -368 -112 0
v -112 -144 0
v -128 -144 0
v -128 -128 0
v -112 -128 0
v -192 -144 0
v -208 -144 0
v -208 -128 0
v -192 -128 0
v -272 -160 0
v -288 -160 0
v -288 -144 0
v -272 -144 0

# Texture cooridinates (Count = 24)
vt 0.25 0.8888889
vt 0.2777778 0.8888889
vt 0.2777778 0.9166667
vt 0.25 0.9166667
vt 0.3333333 0.9722222
vt 0.3611111 0.9722222
vt 0.3611111 1
vt 0.3333333 1
vt 0.4166667 0.9722222
vt 0.4444444 0.9722222
vt 0.4444444 1
vt 0.4166667 1
vt 0.4722222 0.9722222
vt 0.4722222 1
vt 0.4166667 0.9444444
vt 0.4444444 0.9444444
vt 0.4722222 0.9444444
vt 0.4444444 0.9166667
vt 0.4722222 0.9166667
vt 0.3888889 0.9722222
vt 0.3888889 1
vt 0.3333333 0.9444444
vt 0.3611111 0.9444444
vt 0.3888889 0.9444444

# Normal
vn 0 0 -1

# Mesh description
g cave11-4100-3x1_mesh_0007

# Faces
f 1/1/1 2/2/1 3/3/1 4/4/1
f 5/5/1 6/6/1 7/7/1 8/8/1
f 9/5/1 10/6/1 11/7/1 12/8/1
f 13/9/1 14/10/1 15/11/1 16/12/1
f 17/10/1 18/13/1 19/14/1 20/11/1
f 21/15/1 22/16/1 23/10/1 24/9/1
f 25/15/1 26/16/1 27/10/1 28/9/1
f 29/16/1 30/17/1 31/13/1 32/10/1
f 33/10/1 34/13/1 35/14/1 36/11/1
f 37/9/1 38/10/1 39/11/1 40/12/1
f 41/18/1 42/19/1 43/17/1 44/16/1
f 45/16/1 46/17/1 47/13/1 48/10/1
f 49/18/1 50/19/1 51/17/1 52/16/1
f 53/16/1 54/17/1 55/13/1 56/10/1
f 57/16/1 58/17/1 59/13/1 60/10/1
f 61/20/1 62/6/1 63/7/1 64/21/1
f 65/22/1 66/23/1 67/6/1 68/5/1
f 69/24/1 70/23/1 71/6/1 72/20/1
f 73/1/1 74/2/1 75/3/1 76/4/1
f 77/23/1 78/22/1 79/5/1 80/6/1
f 81/23/1 82/24/1 83/20/1 84/6/1
f 85/6/1 86/20/1 87/21/1 88/7/1
f 89/22/1 90/23/1 91/6/1 92/5/1
f 93/1/1 94/2/1 95/3/1 96/4/1
f 97/5/1 98/6/1 99/7/1 100/8/1
f 101/5/1 102/6/1 103/7/1 104/8/1

