# Tiled2Unity generated file. Do not modify by hand.
# Wavefront file for 'caveroom6_mesh_0003.obj'

# Vertices (Count = 100)
v 0 -16 0
v -16 -16 0
v -16 0 0
v 0 0 0
v -32 -16 0
v -48 -16 0
v -48 0 0
v -32 0 0
v -112 -16 0
v -128 -16 0
v -128 0 0
v -112 0 0
v -128 -16 0
v -144 -16 0
v -144 0 0
v -128 0 0
v -144 -16 0
v -160 -16 0
v -160 0 0
v -144 0 0
v 0 -32 0
v -16 -32 0
v -16 -16 0
v 0 -16 0
v -144 -32 0
v -160 -32 0
v -160 -16 0
v -144 -16 0
v 0 -48 0
v -16 -48 0
v -16 -32 0
v 0 -32 0
v -96 -48 0
v -112 -48 0
v -112 -32 0
v -96 -32 0
v -112 -48 0
v -128 -48 0
v -128 -32 0
v -112 -32 0
v -128 -48 0
v -144 -48 0
v -144 -32 0
v -128 -32 0
v -64 -80 0
v -80 -80 0
v -80 -64 0
v -64 -64 0
v -80 -80 0
v -96 -80 0
v -96 -64 0
v -80 -64 0
v -96 -80 0
v -112 -80 0
v -112 -64 0
v -96 -64 0
v -112 -80 0
v -128 -80 0
v -128 -64 0
v -112 -64 0
v -32 -128 0
v -48 -128 0
v -48 -112 0
v -32 -112 0
v -48 -128 0
v -64 -128 0
v -64 -112 0
v -48 -112 0
v -64 -128 0
v -80 -128 0
v -80 -112 0
v -64 -112 0
v -80 -128 0
v -96 -128 0
v -96 -112 0
v -80 -112 0
v -96 -128 0
v -112 -128 0
v -112 -112 0
v -96 -112 0
v 0 -160 0
v -16 -160 0
v -16 -144 0
v 0 -144 0
v -16 -160 0
v -32 -160 0
v -32 -144 0
v -16 -144 0
v -32 -160 0
v -48 -160 0
v -48 -144 0
v -32 -144 0
v -128 -160 0
v -144 -160 0
v -144 -144 0
v -128 -144 0
v -144 -160 0
v -160 -160 0
v -160 -144 0
v -144 -144 0

# Texture cooridinates (Count = 10)
vt 0.25 0.9722222
vt 0.2777778 0.9722222
vt 0.2777778 1
vt 0.25 1
vt 0.3055556 0.9722222
vt 0.3333333 0.9722222
vt 0.3333333 1
vt 0.3055556 1
vt 0.2222222 0.9722222
vt 0.2222222 1

# Normal
vn 0 0 -1

# Mesh description
g caveroom6_mesh_0003

# Faces
f 1/1/1 2/2/1 3/3/1 4/4/1
f 5/5/1 6/6/1 7/7/1 8/8/1
f 9/5/1 10/6/1 11/7/1 12/8/1
f 13/5/1 14/6/1 15/7/1 16/8/1
f 17/1/1 18/2/1 19/3/1 20/4/1
f 21/5/1 22/6/1 23/7/1 24/8/1
f 25/5/1 26/6/1 27/7/1 28/8/1
f 29/5/1 30/6/1 31/7/1 32/8/1
f 33/9/1 34/1/1 35/4/1 36/10/1
f 37/9/1 38/1/1 39/4/1 40/10/1
f 41/9/1 42/1/1 43/4/1 44/10/1
f 45/9/1 46/1/1 47/4/1 48/10/1
f 49/9/1 50/1/1 51/4/1 52/10/1
f 53/9/1 54/1/1 55/4/1 56/10/1
f 57/9/1 58/1/1 59/4/1 60/10/1
f 61/9/1 62/1/1 63/4/1 64/10/1
f 65/9/1 66/1/1 67/4/1 68/10/1
f 69/9/1 70/1/1 71/4/1 72/10/1
f 73/9/1 74/1/1 75/4/1 76/10/1
f 77/9/1 78/1/1 79/4/1 80/10/1
f 81/5/1 82/6/1 83/7/1 84/8/1
f 85/1/1 86/2/1 87/3/1 88/4/1
f 89/1/1 90/2/1 91/3/1 92/4/1
f 93/5/1 94/6/1 95/7/1 96/8/1
f 97/1/1 98/2/1 99/3/1 100/4/1

