# Tiled2Unity generated file. Do not modify by hand.
# Wavefront file for 'caveroom6_mesh_0005.obj'

# Vertices (Count = 36)
v -32 -32 0
v -48 -32 0
v -48 -16 0
v -32 -16 0
v -128 -32 0
v -144 -32 0
v -144 -16 0
v -128 -16 0
v 0 -64 0
v -16 -64 0
v -16 -48 0
v 0 -48 0
v -128 -64 0
v -144 -64 0
v -144 -48 0
v -128 -48 0
v -96 -96 0
v -112 -96 0
v -112 -80 0
v -96 -80 0
v -112 -96 0
v -128 -96 0
v -128 -80 0
v -112 -80 0
v -96 -112 0
v -112 -112 0
v -112 -96 0
v -96 -96 0
v -112 -112 0
v -128 -112 0
v -128 -96 0
v -112 -96 0
v -48 -144 0
v -64 -144 0
v -64 -128 0
v -48 -128 0

# Texture cooridinates (Count = 9)
vt 0.4166667 0.9444444
vt 0.4444444 0.9444444
vt 0.4444444 0.9722222
vt 0.4166667 0.9722222
vt 0.4722222 0.9444444
vt 0.4722222 0.9722222
vt 0.4444444 1
vt 0.4166667 1
vt 0.4722222 1

# Normal
vn 0 0 -1

# Mesh description
g caveroom6_mesh_0005

# Faces
f 1/1/1 2/2/1 3/3/1 4/4/1
f 5/2/1 6/5/1 7/6/1 8/3/1
f 9/1/1 10/2/1 11/3/1 12/4/1
f 13/4/1 14/3/1 15/7/1 16/8/1
f 17/4/1 18/3/1 19/7/1 20/8/1
f 21/3/1 22/6/1 23/9/1 24/7/1
f 25/1/1 26/2/1 27/3/1 28/4/1
f 29/2/1 30/5/1 31/6/1 32/3/1
f 33/1/1 34/2/1 35/3/1 36/4/1

