# Tiled2Unity generated file. Do not modify by hand.
# Wavefront file for 'caveroom4_mesh_0005.obj'

# Vertices (Count = 68)
v -80 -32 0
v -96 -32 0
v -96 -16 0
v -80 -16 0
v -112 -32 0
v -128 -32 0
v -128 -16 0
v -112 -16 0
v -128 -32 0
v -144 -32 0
v -144 -16 0
v -128 -16 0
v -144 -32 0
v -160 -32 0
v -160 -16 0
v -144 -16 0
v -32 -48 0
v -48 -48 0
v -48 -32 0
v -32 -32 0
v -128 -48 0
v -144 -48 0
v -144 -32 0
v -128 -32 0
v -144 -64 0
v -160 -64 0
v -160 -48 0
v -144 -48 0
v -16 -80 0
v -32 -80 0
v -32 -64 0
v -16 -64 0
v -48 -80 0
v -64 -80 0
v -64 -64 0
v -48 -64 0
v -64 -80 0
v -80 -80 0
v -80 -64 0
v -64 -64 0
v -96 -96 0
v -112 -96 0
v -112 -80 0
v -96 -80 0
v -112 -96 0
v -128 -96 0
v -128 -80 0
v -112 -80 0
v -64 -128 0
v -80 -128 0
v -80 -112 0
v -64 -112 0
v -96 -128 0
v -112 -128 0
v -112 -112 0
v -96 -112 0
v -112 -128 0
v -128 -128 0
v -128 -112 0
v -112 -112 0
v -128 -128 0
v -144 -128 0
v -144 -112 0
v -128 -112 0
v -112 -144 0
v -128 -144 0
v -128 -128 0
v -112 -128 0

# Texture cooridinates (Count = 14)
vt 0.4444444 0.9444444
vt 0.4722222 0.9444444
vt 0.4722222 0.9722222
vt 0.4444444 0.9722222
vt 0.4166667 0.9722222
vt 0.4444444 1
vt 0.4166667 1
vt 0.4444444 0.9166667
vt 0.4722222 0.9166667
vt 0.4722222 1
vt 0.3888889 0.9444444
vt 0.4166667 0.9444444
vt 0.3888889 0.9722222
vt 0.3888889 1

# Normal
vn 0 0 -1

# Mesh description
g caveroom4_mesh_0005

# Faces
f 1/1/1 2/2/1 3/3/1 4/4/1
f 5/5/1 6/4/1 7/6/1 8/7/1
f 9/8/1 10/9/1 11/2/1 12/1/1
f 13/4/1 14/3/1 15/10/1 16/6/1
f 17/11/1 18/12/1 19/5/1 20/13/1
f 21/1/1 22/2/1 23/3/1 24/4/1
f 25/8/1 26/9/1 27/2/1 28/1/1
f 29/12/1 30/1/1 31/4/1 32/5/1
f 33/5/1 34/4/1 35/6/1 36/7/1
f 37/1/1 38/2/1 39/3/1 40/4/1
f 41/11/1 42/12/1 43/5/1 44/13/1
f 45/13/1 46/5/1 47/7/1 48/14/1
f 49/8/1 50/9/1 51/2/1 52/1/1
f 53/5/1 54/4/1 55/6/1 56/7/1
f 57/4/1 58/3/1 59/10/1 60/6/1
f 61/12/1 62/1/1 63/4/1 64/5/1
f 65/8/1 66/9/1 67/2/1 68/1/1

