# Tiled2Unity generated file. Do not modify by hand.
# Wavefront file for 'caveroom2_mesh_0002.obj'

# Vertices (Count = 64)
v -32 -32 0
v -48 -32 0
v -48 -16 0
v -32 -16 0
v -112 -32 0
v -128 -32 0
v -128 -16 0
v -112 -16 0
v 0 -48 0
v -16 -48 0
v -16 -32 0
v 0 -32 0
v -16 -48 0
v -32 -48 0
v -32 -32 0
v -16 -32 0
v -80 -48 0
v -96 -48 0
v -96 -32 0
v -80 -32 0
v -64 -64 0
v -80 -64 0
v -80 -48 0
v -64 -48 0
v -80 -64 0
v -96 -64 0
v -96 -48 0
v -80 -48 0
v -128 -64 0
v -144 -64 0
v -144 -48 0
v -128 -48 0
v -112 -80 0
v -128 -80 0
v -128 -64 0
v -112 -64 0
v -32 -112 0
v -48 -112 0
v -48 -96 0
v -32 -96 0
v -48 -112 0
v -64 -112 0
v -64 -96 0
v -48 -96 0
v -144 -112 0
v -160 -112 0
v -160 -96 0
v -144 -96 0
v 0 -128 0
v -16 -128 0
v -16 -112 0
v 0 -112 0
v -144 -128 0
v -160 -128 0
v -160 -112 0
v -144 -112 0
v -80 -144 0
v -96 -144 0
v -96 -128 0
v -80 -128 0
v -96 -144 0
v -112 -144 0
v -112 -128 0
v -96 -128 0

# Texture cooridinates (Count = 10)
vt 0.05555556 0.9166667
vt 0.08333334 0.9166667
vt 0.08333334 0.9444444
vt 0.05555556 0.9444444
vt 0 0.9166667
vt 0.02777778 0.9166667
vt 0.02777778 0.9444444
vt 0 0.9444444
vt 0.02777778 0.9722222
vt 0 0.9722222

# Normal
vn 0 0 -1

# Mesh description
g caveroom2_mesh_0002

# Faces
f 1/1/1 2/2/1 3/3/1 4/4/1
f 5/5/1 6/6/1 7/7/1 8/8/1
f 9/6/1 10/1/1 11/4/1 12/7/1
f 13/1/1 14/2/1 15/3/1 16/4/1
f 17/1/1 18/2/1 19/3/1 20/4/1
f 21/6/1 22/1/1 23/4/1 24/7/1
f 25/6/1 26/1/1 27/4/1 28/7/1
f 29/5/1 30/6/1 31/7/1 32/8/1
f 33/5/1 34/6/1 35/7/1 36/8/1
f 37/6/1 38/1/1 39/4/1 40/7/1
f 41/1/1 42/2/1 43/3/1 44/4/1
f 45/1/1 46/2/1 47/3/1 48/4/1
f 49/8/1 50/7/1 51/9/1 52/10/1
f 53/1/1 54/2/1 55/3/1 56/4/1
f 57/6/1 58/1/1 59/4/1 60/7/1
f 61/6/1 62/1/1 63/4/1 64/7/1

