# Tiled2Unity generated file. Do not modify by hand.
# Wavefront file for 'mine6-2743-10x10_mesh_0007.obj'

# Vertices (Count = 20)
v -64 -32 0
v -80 -32 0
v -80 -16 0
v -64 -16 0
v -64 -48 0
v -80 -48 0
v -80 -32 0
v -64 -32 0
v -32 -96 0
v -48 -96 0
v -48 -80 0
v -32 -80 0
v -96 -96 0
v -112 -96 0
v -112 -80 0
v -96 -80 0
v -128 -144 0
v -144 -144 0
v -144 -128 0
v -128 -128 0

# Texture cooridinates (Count = 14)
vt 0.4722222 0.9722222
vt 0.5 0.9722222
vt 0.5 1
vt 0.4722222 1
vt 0.4722222 0.9444444
vt 0.5 0.9444444
vt 0.1944444 0.9722222
vt 0.2222222 0.9722222
vt 0.2222222 1
vt 0.1944444 1
vt 0.8611111 0.9722222
vt 0.8888889 0.9722222
vt 0.8888889 1
vt 0.8611111 1

# Normal
vn 0 0 -1

# Mesh description
g mine6-2743-10x10_mesh_0007

# Faces
f 1/1/1 2/2/1 3/3/1 4/4/1
f 5/5/1 6/6/1 7/2/1 8/1/1
f 9/7/1 10/8/1 11/9/1 12/10/1
f 13/7/1 14/8/1 15/9/1 16/10/1
f 17/11/1 18/12/1 19/13/1 20/14/1

