# Tiled2Unity generated file. Do not modify by hand.
# Wavefront file for 'newtest_mesh_0006.obj'

# Vertices (Count = 320)
v -32 -32 0
v -48 -32 0
v -48 -16 0
v -32 -16 0
v -112 -32 0
v -128 -32 0
v -128 -16 0
v -112 -16 0
v -336 -32 0
v -352 -32 0
v -352 -16 0
v -336 -16 0
v -160 -48 0
v -176 -48 0
v -176 -32 0
v -160 -32 0
v -240 -48 0
v -256 -48 0
v -256 -32 0
v -240 -32 0
v -256 -64 0
v -272 -64 0
v -272 -48 0
v -256 -48 0
v -48 -112 0
v -64 -112 0
v -64 -96 0
v -48 -96 0
v -336 -112 0
v -352 -112 0
v -352 -96 0
v -336 -96 0
v -16 -144 0
v -32 -144 0
v -32 -128 0
v -16 -128 0
v -32 -144 0
v -48 -144 0
v -48 -128 0
v -32 -128 0
v -112 -144 0
v -128 -144 0
v -128 -128 0
v -112 -128 0
v -224 -144 0
v -240 -144 0
v -240 -128 0
v -224 -128 0
v -16 -160 0
v -32 -160 0
v -32 -144 0
v -16 -144 0
v -48 -160 0
v -64 -160 0
v -64 -144 0
v -48 -144 0
v -64 -160 0
v -80 -160 0
v -80 -144 0
v -64 -144 0
v -96 -160 0
v -112 -160 0
v -112 -144 0
v -96 -144 0
v -336 -160 0
v -352 -160 0
v -352 -144 0
v -336 -144 0
v -368 -160 0
v -384 -160 0
v -384 -144 0
v -368 -144 0
v -48 -176 0
v -64 -176 0
v -64 -160 0
v -48 -160 0
v -80 -176 0
v -96 -176 0
v -96 -160 0
v -80 -160 0
v -384 -176 0
v -400 -176 0
v -400 -160 0
v -384 -160 0
v -48 -192 0
v -64 -192 0
v -64 -176 0
v -48 -176 0
v -80 -192 0
v -96 -192 0
v -96 -176 0
v -80 -176 0
v -448 -192 0
v -464 -192 0
v -464 -176 0
v -448 -176 0
v -112 -208 0
v -128 -208 0
v -128 -192 0
v -112 -192 0
v -144 -208 0
v -160 -208 0
v -160 -192 0
v -144 -192 0
v -208 -208 0
v -224 -208 0
v -224 -192 0
v -208 -192 0
v -352 -208 0
v -368 -208 0
v -368 -192 0
v -352 -192 0
v -400 -208 0
v -416 -208 0
v -416 -192 0
v -400 -192 0
v -96 -224 0
v -112 -224 0
v -112 -208 0
v -96 -208 0
v -128 -224 0
v -144 -224 0
v -144 -208 0
v -128 -208 0
v -272 -224 0
v -288 -224 0
v -288 -208 0
v -272 -208 0
v -384 -224 0
v -400 -224 0
v -400 -208 0
v -384 -208 0
v -16 -240 0
v -32 -240 0
v -32 -224 0
v -16 -224 0
v -64 -240 0
v -80 -240 0
v -80 -224 0
v -64 -224 0
v -96 -240 0
v -112 -240 0
v -112 -224 0
v -96 -224 0
v -112 -240 0
v -128 -240 0
v -128 -224 0
v -112 -224 0
v -128 -240 0
v -144 -240 0
v -144 -224 0
v -128 -224 0
v -192 -240 0
v -208 -240 0
v -208 -224 0
v -192 -224 0
v -272 -240 0
v -288 -240 0
v -288 -224 0
v -272 -224 0
v -288 -240 0
v -304 -240 0
v -304 -224 0
v -288 -224 0
v -352 -240 0
v -368 -240 0
v -368 -224 0
v -352 -224 0
v -448 -240 0
v -464 -240 0
v -464 -224 0
v -448 -224 0
v -64 -256 0
v -80 -256 0
v -80 -240 0
v -64 -240 0
v -288 -256 0
v -304 -256 0
v -304 -240 0
v -288 -240 0
v -96 -272 0
v -112 -272 0
v -112 -256 0
v -96 -256 0
v -256 -272 0
v -272 -272 0
v -272 -256 0
v -256 -256 0
v -272 -272 0
v -288 -272 0
v -288 -256 0
v -272 -256 0
v -48 -288 0
v -64 -288 0
v -64 -272 0
v -48 -272 0
v -96 -288 0
v -112 -288 0
v -112 -272 0
v -96 -272 0
v -112 -288 0
v -128 -288 0
v -128 -272 0
v -112 -272 0
v -160 -288 0
v -176 -288 0
v -176 -272 0
v -160 -272 0
v -176 -288 0
v -192 -288 0
v -192 -272 0
v -176 -272 0
v -192 -288 0
v -208 -288 0
v -208 -272 0
v -192 -272 0
v -224 -288 0
v -240 -288 0
v -240 -272 0
v -224 -272 0
v -256 -288 0
v -272 -288 0
v -272 -272 0
v -256 -272 0
v -272 -288 0
v -288 -288 0
v -288 -272 0
v -272 -272 0
v -320 -288 0
v -336 -288 0
v -336 -272 0
v -320 -272 0
v -400 -288 0
v -416 -288 0
v -416 -272 0
v -400 -272 0
v -448 -288 0
v -464 -288 0
v -464 -272 0
v -448 -272 0
v -80 -304 0
v -96 -304 0
v -96 -288 0
v -80 -288 0
v -112 -304 0
v -128 -304 0
v -128 -288 0
v -112 -288 0
v -128 -304 0
v -144 -304 0
v -144 -288 0
v -128 -288 0
v -144 -304 0
v -160 -304 0
v -160 -288 0
v -144 -288 0
v -176 -304 0
v -192 -304 0
v -192 -288 0
v -176 -288 0
v -192 -304 0
v -208 -304 0
v -208 -288 0
v -192 -288 0
v -208 -304 0
v -224 -304 0
v -224 -288 0
v -208 -288 0
v -224 -304 0
v -240 -304 0
v -240 -288 0
v -224 -288 0
v -272 -304 0
v -288 -304 0
v -288 -288 0
v -272 -288 0
v -320 -304 0
v -336 -304 0
v -336 -288 0
v -320 -288 0
v -336 -304 0
v -352 -304 0
v -352 -288 0
v -336 -288 0
v -352 -304 0
v -368 -304 0
v -368 -288 0
v -352 -288 0
v -368 -304 0
v -384 -304 0
v -384 -288 0
v -368 -288 0
v -400 -304 0
v -416 -304 0
v -416 -288 0
v -400 -288 0
v -416 -304 0
v -432 -304 0
v -432 -288 0
v -416 -288 0
v -128 -320 0
v -144 -320 0
v -144 -304 0
v -128 -304 0
v -192 -320 0
v -208 -320 0
v -208 -304 0
v -192 -304 0
v -336 -320 0
v -352 -320 0
v -352 -304 0
v -336 -304 0
v -368 -320 0
v -384 -320 0
v -384 -304 0
v -368 -304 0
v -416 -320 0
v -432 -320 0
v -432 -304 0
v -416 -304 0

# Texture cooridinates (Count = 27)
vt 0.5833333 0.9166667
vt 0.6111111 0.9166667
vt 0.6111111 0.9444444
vt 0.5833333 0.9444444
vt 0.5555556 0.9166667
vt 0.5555556 0.9444444
vt 0.5833333 0.8888889
vt 0.6111111 0.8888889
vt 0.5277778 0.9722222
vt 0.5555556 0.9722222
vt 0.5555556 1
vt 0.5277778 1
vt 0.5277778 0.9444444
vt 0.5555556 0.8888889
vt 0.5277778 0.9166667
vt 0.5 0.9722222
vt 0.5 1
vt 0.5277778 0.8888889
vt 0.5 0.9444444
vt 0.6111111 0.9722222
vt 0.6388889 0.9722222
vt 0.6388889 1
vt 0.6111111 1
vt 0.05555556 0.9444444
vt 0.08333334 0.9444444
vt 0.08333334 0.9722222
vt 0.05555556 0.9722222

# Normal
vn 0 0 -1

# Mesh description
g newtest_mesh_0006

# Faces
f 1/1/1 2/2/1 3/3/1 4/4/1
f 5/5/1 6/1/1 7/4/1 8/6/1
f 9/1/1 10/2/1 11/3/1 12/4/1
f 13/7/1 14/8/1 15/2/1 16/1/1
f 17/5/1 18/1/1 19/4/1 20/6/1
f 21/9/1 22/10/1 23/11/1 24/12/1
f 25/13/1 26/6/1 27/10/1 28/9/1
f 29/13/1 30/6/1 31/10/1 32/9/1
f 33/5/1 34/1/1 35/4/1 36/6/1
f 37/1/1 38/2/1 39/3/1 40/4/1
f 41/7/1 42/8/1 43/2/1 44/1/1
f 45/9/1 46/10/1 47/11/1 48/12/1
f 49/14/1 50/7/1 51/1/1 52/5/1
f 53/15/1 54/5/1 55/6/1 56/13/1
f 57/16/1 58/9/1 59/12/1 60/17/1
f 61/16/1 62/9/1 63/12/1 64/17/1
f 65/9/1 66/10/1 67/11/1 68/12/1
f 69/1/1 70/2/1 71/3/1 72/4/1
f 73/18/1 74/14/1 75/5/1 76/15/1
f 77/18/1 78/14/1 79/5/1 80/15/1
f 81/13/1 82/6/1 83/10/1 84/9/1
f 85/19/1 86/13/1 87/9/1 88/16/1
f 89/19/1 90/13/1 91/9/1 92/16/1
f 93/20/1 94/21/1 95/22/1 96/23/1
f 97/16/1 98/9/1 99/12/1 100/17/1
f 101/15/1 102/5/1 103/6/1 104/13/1
f 105/20/1 106/21/1 107/22/1 108/23/1
f 109/24/1 110/25/1 111/26/1 112/27/1
f 113/18/1 114/14/1 115/5/1 116/15/1
f 117/18/1 118/14/1 119/5/1 120/15/1
f 121/18/1 122/14/1 123/5/1 124/15/1
f 125/24/1 126/25/1 127/26/1 128/27/1
f 129/24/1 130/25/1 131/26/1 132/27/1
f 133/20/1 134/21/1 135/22/1 136/23/1
f 137/16/1 138/9/1 139/12/1 140/17/1
f 141/19/1 142/13/1 143/9/1 144/16/1
f 145/19/1 146/13/1 147/9/1 148/16/1
f 149/19/1 150/13/1 151/9/1 152/16/1
f 153/9/1 154/10/1 155/11/1 156/12/1
f 157/5/1 158/1/1 159/4/1 160/6/1
f 161/1/1 162/2/1 163/3/1 164/4/1
f 165/5/1 166/1/1 167/4/1 168/6/1
f 169/18/1 170/14/1 171/5/1 172/15/1
f 173/19/1 174/13/1 175/9/1 176/16/1
f 177/7/1 178/8/1 179/2/1 180/1/1
f 181/15/1 182/5/1 183/6/1 184/13/1
f 185/15/1 186/5/1 187/6/1 188/13/1
f 189/16/1 190/9/1 191/12/1 192/17/1
f 193/9/1 194/10/1 195/11/1 196/12/1
f 197/19/1 198/13/1 199/9/1 200/16/1
f 201/15/1 202/5/1 203/6/1 204/13/1
f 205/16/1 206/9/1 207/12/1 208/17/1
f 209/15/1 210/5/1 211/6/1 212/13/1
f 213/16/1 214/9/1 215/12/1 216/17/1
f 217/16/1 218/9/1 219/12/1 220/17/1
f 221/19/1 222/13/1 223/9/1 224/16/1
f 225/19/1 226/13/1 227/9/1 228/16/1
f 229/16/1 230/9/1 231/12/1 232/17/1
f 233/16/1 234/9/1 235/12/1 236/17/1
f 237/18/1 238/14/1 239/5/1 240/15/1
f 241/20/1 242/21/1 243/22/1 244/23/1
f 245/19/1 246/13/1 247/9/1 248/16/1
f 249/16/1 250/9/1 251/12/1 252/17/1
f 253/20/1 254/21/1 255/22/1 256/23/1
f 257/19/1 258/13/1 259/9/1 260/16/1
f 261/19/1 262/13/1 263/9/1 264/16/1
f 265/19/1 266/13/1 267/9/1 268/16/1
f 269/19/1 270/13/1 271/9/1 272/16/1
f 273/20/1 274/21/1 275/22/1 276/23/1
f 277/18/1 278/14/1 279/5/1 280/15/1
f 281/18/1 282/14/1 283/5/1 284/15/1
f 285/15/1 286/5/1 287/6/1 288/13/1
f 289/15/1 290/5/1 291/6/1 292/13/1
f 293/18/1 294/14/1 295/5/1 296/15/1
f 297/18/1 298/14/1 299/5/1 300/15/1
f 301/19/1 302/13/1 303/9/1 304/16/1
f 305/20/1 306/21/1 307/22/1 308/23/1
f 309/20/1 310/21/1 311/22/1 312/23/1
f 313/18/1 314/14/1 315/5/1 316/15/1
f 317/20/1 318/21/1 319/22/1 320/23/1

