# Tiled2Unity generated file. Do not modify by hand.
# Wavefront file for 'cave11-4100-3x1_mesh_0003.obj'

# Vertices (Count = 668)
v 0 -16 0
v -16 -16 0
v -16 0 0
v 0 0 0
v -64 -16 0
v -80 -16 0
v -80 0 0
v -64 0 0
v -80 -16 0
v -96 -16 0
v -96 0 0
v -80 0 0
v -96 -16 0
v -112 -16 0
v -112 0 0
v -96 0 0
v -112 -16 0
v -128 -16 0
v -128 0 0
v -112 0 0
v -128 -16 0
v -144 -16 0
v -144 0 0
v -128 0 0
v -144 -16 0
v -160 -16 0
v -160 0 0
v -144 0 0
v -160 -16 0
v -176 -16 0
v -176 0 0
v -160 0 0
v -176 -16 0
v -192 -16 0
v -192 0 0
v -176 0 0
v -192 -16 0
v -208 -16 0
v -208 0 0
v -192 0 0
v -208 -16 0
v -224 -16 0
v -224 0 0
v -208 0 0
v -224 -16 0
v -240 -16 0
v -240 0 0
v -224 0 0
v -240 -16 0
v -256 -16 0
v -256 0 0
v -240 0 0
v -256 -16 0
v -272 -16 0
v -272 0 0
v -256 0 0
v -272 -16 0
v -288 -16 0
v -288 0 0
v -272 0 0
v -288 -16 0
v -304 -16 0
v -304 0 0
v -288 0 0
v -304 -16 0
v -320 -16 0
v -320 0 0
v -304 0 0
v -320 -16 0
v -336 -16 0
v -336 0 0
v -320 0 0
v -336 -16 0
v -352 -16 0
v -352 0 0
v -336 0 0
v -352 -16 0
v -368 -16 0
v -368 0 0
v -352 0 0
v -368 -16 0
v -384 -16 0
v -384 0 0
v -368 0 0
v -384 -16 0
v -400 -16 0
v -400 0 0
v -384 0 0
v -400 -16 0
v -416 -16 0
v -416 0 0
v -400 0 0
v -416 -16 0
v -432 -16 0
v -432 0 0
v -416 0 0
v -432 -16 0
v -448 -16 0
v -448 0 0
v -432 0 0
v -448 -16 0
v -464 -16 0
v -464 0 0
v -448 0 0
v -464 -16 0
v -480 -16 0
v -480 0 0
v -464 0 0
v 0 -32 0
v -16 -32 0
v -16 -16 0
v 0 -16 0
v -64 -32 0
v -80 -32 0
v -80 -16 0
v -64 -16 0
v -80 -32 0
v -96 -32 0
v -96 -16 0
v -80 -16 0
v -96 -32 0
v -112 -32 0
v -112 -16 0
v -96 -16 0
v -112 -32 0
v -128 -32 0
v -128 -16 0
v -112 -16 0
v -128 -32 0
v -144 -32 0
v -144 -16 0
v -128 -16 0
v -144 -32 0
v -160 -32 0
v -160 -16 0
v -144 -16 0
v -160 -32 0
v -176 -32 0
v -176 -16 0
v -160 -16 0
v -176 -32 0
v -192 -32 0
v -192 -16 0
v -176 -16 0
v -192 -32 0
v -208 -32 0
v -208 -16 0
v -192 -16 0
v -208 -32 0
v -224 -32 0
v -224 -16 0
v -208 -16 0
v -224 -32 0
v -240 -32 0
v -240 -16 0
v -224 -16 0
v -240 -32 0
v -256 -32 0
v -256 -16 0
v -240 -16 0
v -256 -32 0
v -272 -32 0
v -272 -16 0
v -256 -16 0
v -272 -32 0
v -288 -32 0
v -288 -16 0
v -272 -16 0
v -288 -32 0
v -304 -32 0
v -304 -16 0
v -288 -16 0
v -304 -32 0
v -320 -32 0
v -320 -16 0
v -304 -16 0
v -320 -32 0
v -336 -32 0
v -336 -16 0
v -320 -16 0
v -336 -32 0
v -352 -32 0
v -352 -16 0
v -336 -16 0
v -352 -32 0
v -368 -32 0
v -368 -16 0
v -352 -16 0
v -368 -32 0
v -384 -32 0
v -384 -16 0
v -368 -16 0
v -384 -32 0
v -400 -32 0
v -400 -16 0
v -384 -16 0
v -400 -32 0
v -416 -32 0
v -416 -16 0
v -400 -16 0
v -416 -32 0
v -432 -32 0
v -432 -16 0
v -416 -16 0
v -432 -32 0
v -448 -32 0
v -448 -16 0
v -432 -16 0
v -448 -32 0
v -464 -32 0
v -464 -16 0
v -448 -16 0
v -464 -32 0
v -480 -32 0
v -480 -16 0
v -464 -16 0
v 0 -48 0
v -16 -48 0
v -16 -32 0
v 0 -32 0
v -16 -48 0
v -32 -48 0
v -32 -32 0
v -16 -32 0
v -80 -48 0
v -96 -48 0
v -96 -32 0
v -80 -32 0
v -96 -48 0
v -112 -48 0
v -112 -32 0
v -96 -32 0
v -112 -48 0
v -128 -48 0
v -128 -32 0
v -112 -32 0
v -128 -48 0
v -144 -48 0
v -144 -32 0
v -128 -32 0
v -208 -48 0
v -224 -48 0
v -224 -32 0
v -208 -32 0
v -224 -48 0
v -240 -48 0
v -240 -32 0
v -224 -32 0
v -240 -48 0
v -256 -48 0
v -256 -32 0
v -240 -32 0
v -256 -48 0
v -272 -48 0
v -272 -32 0
v -256 -32 0
v -272 -48 0
v -288 -48 0
v -288 -32 0
v -272 -32 0
v -288 -48 0
v -304 -48 0
v -304 -32 0
v -288 -32 0
v -304 -48 0
v -320 -48 0
v -320 -32 0
v -304 -32 0
v -320 -48 0
v -336 -48 0
v -336 -32 0
v -320 -32 0
v -336 -48 0
v -352 -48 0
v -352 -32 0
v -336 -32 0
v -352 -48 0
v -368 -48 0
v -368 -32 0
v -352 -32 0
v -368 -48 0
v -384 -48 0
v -384 -32 0
v -368 -32 0
v -384 -48 0
v -400 -48 0
v -400 -32 0
v -384 -32 0
v -400 -48 0
v -416 -48 0
v -416 -32 0
v -400 -32 0
v -416 -48 0
v -432 -48 0
v -432 -32 0
v -416 -32 0
v -432 -48 0
v -448 -48 0
v -448 -32 0
v -432 -32 0
v -448 -48 0
v -464 -48 0
v -464 -32 0
v -448 -32 0
v -464 -48 0
v -480 -48 0
v -480 -32 0
v -464 -32 0
v -16 -64 0
v -32 -64 0
v -32 -48 0
v -16 -48 0
v -96 -64 0
v -112 -64 0
v -112 -48 0
v -96 -48 0
v -112 -64 0
v -128 -64 0
v -128 -48 0
v -112 -48 0
v -128 -64 0
v -144 -64 0
v -144 -48 0
v -128 -48 0
v -240 -64 0
v -256 -64 0
v -256 -48 0
v -240 -48 0
v -256 -64 0
v -272 -64 0
v -272 -48 0
v -256 -48 0
v -272 -64 0
v -288 -64 0
v -288 -48 0
v -272 -48 0
v -288 -64 0
v -304 -64 0
v -304 -48 0
v -288 -48 0
v -304 -64 0
v -320 -64 0
v -320 -48 0
v -304 -48 0
v -448 -64 0
v -464 -64 0
v -464 -48 0
v -448 -48 0
v -464 -64 0
v -480 -64 0
v -480 -48 0
v -464 -48 0
v -272 -80 0
v -288 -80 0
v -288 -64 0
v -272 -64 0
v -288 -80 0
v -304 -80 0
v -304 -64 0
v -288 -64 0
v -464 -80 0
v -480 -80 0
v -480 -64 0
v -464 -64 0
v -464 -96 0
v -480 -96 0
v -480 -80 0
v -464 -80 0
v -96 -112 0
v -112 -112 0
v -112 -96 0
v -96 -96 0
v -112 -112 0
v -128 -112 0
v -128 -96 0
v -112 -96 0
v -128 -112 0
v -144 -112 0
v -144 -96 0
v -128 -96 0
v -144 -112 0
v -160 -112 0
v -160 -96 0
v -144 -96 0
v -160 -112 0
v -176 -112 0
v -176 -96 0
v -160 -96 0
v -464 -112 0
v -480 -112 0
v -480 -96 0
v -464 -96 0
v 0 -128 0
v -16 -128 0
v -16 -112 0
v 0 -112 0
v -16 -128 0
v -32 -128 0
v -32 -112 0
v -16 -112 0
v -80 -128 0
v -96 -128 0
v -96 -112 0
v -80 -112 0
v -96 -128 0
v -112 -128 0
v -112 -112 0
v -96 -112 0
v -112 -128 0
v -128 -128 0
v -128 -112 0
v -112 -112 0
v -128 -128 0
v -144 -128 0
v -144 -112 0
v -128 -112 0
v -144 -128 0
v -160 -128 0
v -160 -112 0
v -144 -112 0
v -160 -128 0
v -176 -128 0
v -176 -112 0
v -160 -112 0
v -176 -128 0
v -192 -128 0
v -192 -112 0
v -176 -112 0
v -448 -128 0
v -464 -128 0
v -464 -112 0
v -448 -112 0
v -464 -128 0
v -480 -128 0
v -480 -112 0
v -464 -112 0
v 0 -144 0
v -16 -144 0
v -16 -128 0
v 0 -128 0
v -16 -144 0
v -32 -144 0
v -32 -128 0
v -16 -128 0
v -48 -144 0
v -64 -144 0
v -64 -128 0
v -48 -128 0
v -64 -144 0
v -80 -144 0
v -80 -128 0
v -64 -128 0
v -80 -144 0
v -96 -144 0
v -96 -128 0
v -80 -128 0
v -96 -144 0
v -112 -144 0
v -112 -128 0
v -96 -128 0
v -112 -144 0
v -128 -144 0
v -128 -128 0
v -112 -128 0
v -128 -144 0
v -144 -144 0
v -144 -128 0
v -128 -128 0
v -144 -144 0
v -160 -144 0
v -160 -128 0
v -144 -128 0
v -160 -144 0
v -176 -144 0
v -176 -128 0
v -160 -128 0
v -176 -144 0
v -192 -144 0
v -192 -128 0
v -176 -128 0
v -192 -144 0
v -208 -144 0
v -208 -128 0
v -192 -128 0
v -208 -144 0
v -224 -144 0
v -224 -128 0
v -208 -128 0
v -240 -144 0
v -256 -144 0
v -256 -128 0
v -240 -128 0
v -256 -144 0
v -272 -144 0
v -272 -128 0
v -256 -128 0
v -272 -144 0
v -288 -144 0
v -288 -128 0
v -272 -128 0
v -288 -144 0
v -304 -144 0
v -304 -128 0
v -288 -128 0
v -304 -144 0
v -320 -144 0
v -320 -128 0
v -304 -128 0
v -320 -144 0
v -336 -144 0
v -336 -128 0
v -320 -128 0
v -336 -144 0
v -352 -144 0
v -352 -128 0
v -336 -128 0
v -352 -144 0
v -368 -144 0
v -368 -128 0
v -352 -128 0
v -368 -144 0
v -384 -144 0
v -384 -128 0
v -368 -128 0
v -384 -144 0
v -400 -144 0
v -400 -128 0
v -384 -128 0
v -400 -144 0
v -416 -144 0
v -416 -128 0
v -400 -128 0
v -416 -144 0
v -432 -144 0
v -432 -128 0
v -416 -128 0
v -432 -144 0
v -448 -144 0
v -448 -128 0
v -432 -128 0
v -448 -144 0
v -464 -144 0
v -464 -128 0
v -448 -128 0
v -464 -144 0
v -480 -144 0
v -480 -128 0
v -464 -128 0
v 0 -160 0
v -16 -160 0
v -16 -144 0
v 0 -144 0
v -16 -160 0
v -32 -160 0
v -32 -144 0
v -16 -144 0
v -32 -160 0
v -48 -160 0
v -48 -144 0
v -32 -144 0
v -48 -160 0
v -64 -160 0
v -64 -144 0
v -48 -144 0
v -64 -160 0
v -80 -160 0
v -80 -144 0
v -64 -144 0
v -80 -160 0
v -96 -160 0
v -96 -144 0
v -80 -144 0
v -96 -160 0
v -112 -160 0
v -112 -144 0
v -96 -144 0
v -112 -160 0
v -128 -160 0
v -128 -144 0
v -112 -144 0
v -128 -160 0
v -144 -160 0
v -144 -144 0
v -128 -144 0
v -144 -160 0
v -160 -160 0
v -160 -144 0
v -144 -144 0
v -160 -160 0
v -176 -160 0
v -176 -144 0
v -160 -144 0
v -176 -160 0
v -192 -160 0
v -192 -144 0
v -176 -144 0
v -192 -160 0
v -208 -160 0
v -208 -144 0
v -192 -144 0
v -208 -160 0
v -224 -160 0
v -224 -144 0
v -208 -144 0
v -224 -160 0
v -240 -160 0
v -240 -144 0
v -224 -144 0
v -240 -160 0
v -256 -160 0
v -256 -144 0
v -240 -144 0
v -256 -160 0
v -272 -160 0
v -272 -144 0
v -256 -144 0
v -272 -160 0
v -288 -160 0
v -288 -144 0
v -272 -144 0
v -288 -160 0
v -304 -160 0
v -304 -144 0
v -288 -144 0
v -304 -160 0
v -320 -160 0
v -320 -144 0
v -304 -144 0
v -320 -160 0
v -336 -160 0
v -336 -144 0
v -320 -144 0
v -336 -160 0
v -352 -160 0
v -352 -144 0
v -336 -144 0
v -352 -160 0
v -368 -160 0
v -368 -144 0
v -352 -144 0
v -368 -160 0
v -384 -160 0
v -384 -144 0
v -368 -144 0
v -384 -160 0
v -400 -160 0
v -400 -144 0
v -384 -144 0
v -400 -160 0
v -416 -160 0
v -416 -144 0
v -400 -144 0
v -416 -160 0
v -432 -160 0
v -432 -144 0
v -416 -144 0
v -432 -160 0
v -448 -160 0
v -448 -144 0
v -432 -144 0
v -448 -160 0
v -464 -160 0
v -464 -144 0
v -448 -144 0
v -464 -160 0
v -480 -160 0
v -480 -144 0
v -464 -144 0

# Texture cooridinates (Count = 10)
vt 0.3055556 0.9722222
vt 0.3333333 0.9722222
vt 0.3333333 1
vt 0.3055556 1
vt 0.25 0.9722222
vt 0.2777778 0.9722222
vt 0.2777778 1
vt 0.25 1
vt 0.25 0.9444444
vt 0.2777778 0.9444444

# Normal
vn 0 0 -1

# Mesh description
g cave11-4100-3x1_mesh_0003

# Faces
f 1/1/1 2/2/1 3/3/1 4/4/1
f 5/1/1 6/2/1 7/3/1 8/4/1
f 9/1/1 10/2/1 11/3/1 12/4/1
f 13/5/1 14/6/1 15/7/1 16/8/1
f 17/5/1 18/6/1 19/7/1 20/8/1
f 21/5/1 22/6/1 23/7/1 24/8/1
f 25/1/1 26/2/1 27/3/1 28/4/1
f 29/5/1 30/6/1 31/7/1 32/8/1
f 33/1/1 34/2/1 35/3/1 36/4/1
f 37/9/1 38/10/1 39/6/1 40/5/1
f 41/1/1 42/2/1 43/3/1 44/4/1
f 45/5/1 46/6/1 47/7/1 48/8/1
f 49/1/1 50/2/1 51/3/1 52/4/1
f 53/9/1 54/10/1 55/6/1 56/5/1
f 57/9/1 58/10/1 59/6/1 60/5/1
f 61/9/1 62/10/1 63/6/1 64/5/1
f 65/5/1 66/6/1 67/7/1 68/8/1
f 69/5/1 70/6/1 71/7/1 72/8/1
f 73/9/1 74/10/1 75/6/1 76/5/1
f 77/9/1 78/10/1 79/6/1 80/5/1
f 81/9/1 82/10/1 83/6/1 84/5/1
f 85/9/1 86/10/1 87/6/1 88/5/1
f 89/9/1 90/10/1 91/6/1 92/5/1
f 93/9/1 94/10/1 95/6/1 96/5/1
f 97/9/1 98/10/1 99/6/1 100/5/1
f 101/9/1 102/10/1 103/6/1 104/5/1
f 105/9/1 106/10/1 107/6/1 108/5/1
f 109/1/1 110/2/1 111/3/1 112/4/1
f 113/1/1 114/2/1 115/3/1 116/4/1
f 117/5/1 118/6/1 119/7/1 120/8/1
f 121/1/1 122/2/1 123/3/1 124/4/1
f 125/1/1 126/2/1 127/3/1 128/4/1
f 129/9/1 130/10/1 131/6/1 132/5/1
f 133/9/1 134/10/1 135/6/1 136/5/1
f 137/9/1 138/10/1 139/6/1 140/5/1
f 141/9/1 142/10/1 143/6/1 144/5/1
f 145/9/1 146/10/1 147/6/1 148/5/1
f 149/9/1 150/10/1 151/6/1 152/5/1
f 153/9/1 154/10/1 155/6/1 156/5/1
f 157/9/1 158/10/1 159/6/1 160/5/1
f 161/9/1 162/10/1 163/6/1 164/5/1
f 165/9/1 166/10/1 167/6/1 168/5/1
f 169/9/1 170/10/1 171/6/1 172/5/1
f 173/9/1 174/10/1 175/6/1 176/5/1
f 177/9/1 178/10/1 179/6/1 180/5/1
f 181/9/1 182/10/1 183/6/1 184/5/1
f 185/9/1 186/10/1 187/6/1 188/5/1
f 189/9/1 190/10/1 191/6/1 192/5/1
f 193/9/1 194/10/1 195/6/1 196/5/1
f 197/9/1 198/10/1 199/6/1 200/5/1
f 201/9/1 202/10/1 203/6/1 204/5/1
f 205/9/1 206/10/1 207/6/1 208/5/1
f 209/9/1 210/10/1 211/6/1 212/5/1
f 213/9/1 214/10/1 215/6/1 216/5/1
f 217/1/1 218/2/1 219/3/1 220/4/1
f 221/1/1 222/2/1 223/3/1 224/4/1
f 225/1/1 226/2/1 227/3/1 228/4/1
f 229/5/1 230/6/1 231/7/1 232/8/1
f 233/9/1 234/10/1 235/6/1 236/5/1
f 237/9/1 238/10/1 239/6/1 240/5/1
f 241/9/1 242/10/1 243/6/1 244/5/1
f 245/9/1 246/10/1 247/6/1 248/5/1
f 249/9/1 250/10/1 251/6/1 252/5/1
f 253/9/1 254/10/1 255/6/1 256/5/1
f 257/9/1 258/10/1 259/6/1 260/5/1
f 261/9/1 262/10/1 263/6/1 264/5/1
f 265/9/1 266/10/1 267/6/1 268/5/1
f 269/9/1 270/10/1 271/6/1 272/5/1
f 273/9/1 274/10/1 275/6/1 276/5/1
f 277/9/1 278/10/1 279/6/1 280/5/1
f 281/9/1 282/10/1 283/6/1 284/5/1
f 285/9/1 286/10/1 287/6/1 288/5/1
f 289/9/1 290/10/1 291/6/1 292/5/1
f 293/9/1 294/10/1 295/6/1 296/5/1
f 297/9/1 298/10/1 299/6/1 300/5/1
f 301/9/1 302/10/1 303/6/1 304/5/1
f 305/9/1 306/10/1 307/6/1 308/5/1
f 309/1/1 310/2/1 311/3/1 312/4/1
f 313/5/1 314/6/1 315/7/1 316/8/1
f 317/9/1 318/10/1 319/6/1 320/5/1
f 321/9/1 322/10/1 323/6/1 324/5/1
f 325/9/1 326/10/1 327/6/1 328/5/1
f 329/9/1 330/10/1 331/6/1 332/5/1
f 333/9/1 334/10/1 335/6/1 336/5/1
f 337/9/1 338/10/1 339/6/1 340/5/1
f 341/9/1 342/10/1 343/6/1 344/5/1
f 345/9/1 346/10/1 347/6/1 348/5/1
f 349/9/1 350/10/1 351/6/1 352/5/1
f 353/9/1 354/10/1 355/6/1 356/5/1
f 357/9/1 358/10/1 359/6/1 360/5/1
f 361/9/1 362/10/1 363/6/1 364/5/1
f 365/9/1 366/10/1 367/6/1 368/5/1
f 369/5/1 370/6/1 371/7/1 372/8/1
f 373/9/1 374/10/1 375/6/1 376/5/1
f 377/9/1 378/10/1 379/6/1 380/5/1
f 381/9/1 382/10/1 383/6/1 384/5/1
f 385/9/1 386/10/1 387/6/1 388/5/1
f 389/9/1 390/10/1 391/6/1 392/5/1
f 393/1/1 394/2/1 395/3/1 396/4/1
f 397/1/1 398/2/1 399/3/1 400/4/1
f 401/5/1 402/6/1 403/7/1 404/8/1
f 405/5/1 406/6/1 407/7/1 408/8/1
f 409/5/1 410/6/1 411/7/1 412/8/1
f 413/5/1 414/6/1 415/7/1 416/8/1
f 417/9/1 418/10/1 419/6/1 420/5/1
f 421/9/1 422/10/1 423/6/1 424/5/1
f 425/9/1 426/10/1 427/6/1 428/5/1
f 429/9/1 430/10/1 431/6/1 432/5/1
f 433/9/1 434/10/1 435/6/1 436/5/1
f 437/5/1 438/6/1 439/7/1 440/8/1
f 441/5/1 442/6/1 443/7/1 444/8/1
f 445/1/1 446/2/1 447/3/1 448/4/1
f 449/1/1 450/2/1 451/3/1 452/4/1
f 453/1/1 454/2/1 455/3/1 456/4/1
f 457/1/1 458/2/1 459/3/1 460/4/1
f 461/1/1 462/2/1 463/3/1 464/4/1
f 465/9/1 466/10/1 467/6/1 468/5/1
f 469/9/1 470/10/1 471/6/1 472/5/1
f 473/9/1 474/10/1 475/6/1 476/5/1
f 477/9/1 478/10/1 479/6/1 480/5/1
f 481/9/1 482/10/1 483/6/1 484/5/1
f 485/9/1 486/10/1 487/6/1 488/5/1
f 489/9/1 490/10/1 491/6/1 492/5/1
f 493/9/1 494/10/1 495/6/1 496/5/1
f 497/9/1 498/10/1 499/6/1 500/5/1
f 501/9/1 502/10/1 503/6/1 504/5/1
f 505/9/1 506/10/1 507/6/1 508/5/1
f 509/9/1 510/10/1 511/6/1 512/5/1
f 513/9/1 514/10/1 515/6/1 516/5/1
f 517/9/1 518/10/1 519/6/1 520/5/1
f 521/9/1 522/10/1 523/6/1 524/5/1
f 525/9/1 526/10/1 527/6/1 528/5/1
f 529/9/1 530/10/1 531/6/1 532/5/1
f 533/9/1 534/10/1 535/6/1 536/5/1
f 537/9/1 538/10/1 539/6/1 540/5/1
f 541/9/1 542/10/1 543/6/1 544/5/1
f 545/9/1 546/10/1 547/6/1 548/5/1
f 549/1/1 550/2/1 551/3/1 552/4/1
f 553/1/1 554/2/1 555/3/1 556/4/1
f 557/5/1 558/6/1 559/7/1 560/8/1
f 561/1/1 562/2/1 563/3/1 564/4/1
f 565/1/1 566/2/1 567/3/1 568/4/1
f 569/5/1 570/6/1 571/7/1 572/8/1
f 573/1/1 574/2/1 575/3/1 576/4/1
f 577/5/1 578/6/1 579/7/1 580/8/1
f 581/5/1 582/6/1 583/7/1 584/8/1
f 585/5/1 586/6/1 587/7/1 588/8/1
f 589/5/1 590/6/1 591/7/1 592/8/1
f 593/9/1 594/10/1 595/6/1 596/5/1
f 597/9/1 598/10/1 599/6/1 600/5/1
f 601/9/1 602/10/1 603/6/1 604/5/1
f 605/9/1 606/10/1 607/6/1 608/5/1
f 609/9/1 610/10/1 611/6/1 612/5/1
f 613/9/1 614/10/1 615/6/1 616/5/1
f 617/9/1 618/10/1 619/6/1 620/5/1
f 621/9/1 622/10/1 623/6/1 624/5/1
f 625/9/1 626/10/1 627/6/1 628/5/1
f 629/9/1 630/10/1 631/6/1 632/5/1
f 633/9/1 634/10/1 635/6/1 636/5/1
f 637/5/1 638/6/1 639/7/1 640/8/1
f 641/5/1 642/6/1 643/7/1 644/8/1
f 645/9/1 646/10/1 647/6/1 648/5/1
f 649/9/1 650/10/1 651/6/1 652/5/1
f 653/9/1 654/10/1 655/6/1 656/5/1
f 657/9/1 658/10/1 659/6/1 660/5/1
f 661/9/1 662/10/1 663/6/1 664/5/1
f 665/9/1 666/10/1 667/6/1 668/5/1

