# Tiled2Unity generated file. Do not modify by hand.
# Wavefront file for 'mine10-7773-10x10_mesh_0006.obj'

# Vertices (Count = 36)
v -48 -48 0
v -64 -48 0
v -64 -32 0
v -48 -32 0
v -64 -48 0
v -80 -48 0
v -80 -32 0
v -64 -32 0
v -112 -64 0
v -128 -64 0
v -128 -48 0
v -112 -48 0
v -64 -96 0
v -80 -96 0
v -80 -80 0
v -64 -80 0
v -80 -96 0
v -96 -96 0
v -96 -80 0
v -80 -80 0
v -64 -128 0
v -80 -128 0
v -80 -112 0
v -64 -112 0
v -80 -128 0
v -96 -128 0
v -96 -112 0
v -80 -112 0
v -64 -160 0
v -80 -160 0
v -80 -144 0
v -64 -144 0
v -80 -160 0
v -96 -160 0
v -96 -144 0
v -80 -144 0

# Texture cooridinates (Count = 10)
vt 0.1666667 0.75
vt 0.1944444 0.75
vt 0.1944444 0.7777778
vt 0.1666667 0.7777778
vt 0.1944444 0.8055556
vt 0.1666667 0.8055556
vt 0.2222222 0.7777778
vt 0.25 0.7777778
vt 0.25 0.8055556
vt 0.2222222 0.8055556

# Normal
vn 0 0 -1

# Mesh description
g mine10-7773-10x10_mesh_0006

# Faces
f 1/1/1 2/2/1 3/3/1 4/4/1
f 5/1/1 6/2/1 7/3/1 8/4/1
f 9/1/1 10/2/1 11/3/1 12/4/1
f 13/4/1 14/3/1 15/5/1 16/6/1
f 17/7/1 18/8/1 19/9/1 20/10/1
f 21/4/1 22/3/1 23/5/1 24/6/1
f 25/7/1 26/8/1 27/9/1 28/10/1
f 29/4/1 30/3/1 31/5/1 32/6/1
f 33/7/1 34/8/1 35/9/1 36/10/1

