# Tiled2Unity generated file. Do not modify by hand.
# Wavefront file for 'caveroom3_mesh_0002.obj'

# Vertices (Count = 56)
v -112 -32 0
v -128 -32 0
v -128 -16 0
v -112 -16 0
v -144 -32 0
v -160 -32 0
v -160 -16 0
v -144 -16 0
v 0 -48 0
v -16 -48 0
v -16 -32 0
v 0 -32 0
v -16 -48 0
v -32 -48 0
v -32 -32 0
v -16 -32 0
v -32 -48 0
v -48 -48 0
v -48 -32 0
v -32 -32 0
v -128 -48 0
v -144 -48 0
v -144 -32 0
v -128 -32 0
v -144 -48 0
v -160 -48 0
v -160 -32 0
v -144 -32 0
v -128 -64 0
v -144 -64 0
v -144 -48 0
v -128 -48 0
v -80 -80 0
v -96 -80 0
v -96 -64 0
v -80 -64 0
v -96 -80 0
v -112 -80 0
v -112 -64 0
v -96 -64 0
v -96 -96 0
v -112 -96 0
v -112 -80 0
v -96 -80 0
v -16 -112 0
v -32 -112 0
v -32 -96 0
v -16 -96 0
v -48 -128 0
v -64 -128 0
v -64 -112 0
v -48 -112 0
v -144 -128 0
v -160 -128 0
v -160 -112 0
v -144 -112 0

# Texture cooridinates (Count = 6)
vt 0.02777778 0.9166667
vt 0.05555556 0.9166667
vt 0.05555556 0.9444444
vt 0.02777778 0.9444444
vt 0 0.9166667
vt 0 0.9444444

# Normal
vn 0 0 -1

# Mesh description
g caveroom3_mesh_0002

# Faces
f 1/1/1 2/2/1 3/3/1 4/4/1
f 5/1/1 6/2/1 7/3/1 8/4/1
f 9/5/1 10/1/1 11/4/1 12/6/1
f 13/1/1 14/2/1 15/3/1 16/4/1
f 17/1/1 18/2/1 19/3/1 20/4/1
f 21/1/1 22/2/1 23/3/1 24/4/1
f 25/1/1 26/2/1 27/3/1 28/4/1
f 29/1/1 30/2/1 31/3/1 32/4/1
f 33/1/1 34/2/1 35/3/1 36/4/1
f 37/1/1 38/2/1 39/3/1 40/4/1
f 41/1/1 42/2/1 43/3/1 44/4/1
f 45/5/1 46/1/1 47/4/1 48/6/1
f 49/1/1 50/2/1 51/3/1 52/4/1
f 53/1/1 54/2/1 55/3/1 56/4/1

