# Tiled2Unity generated file. Do not modify by hand.
# Wavefront file for 'cave12-2300-4x4_mesh_0003.obj'

# Vertices (Count = 780)
v 0 -16 0
v -16 -16 0
v -16 0 0
v 0 0 0
v -16 -16 0
v -32 -16 0
v -32 0 0
v -16 0 0
v -96 -16 0
v -112 -16 0
v -112 0 0
v -96 0 0
v -112 -16 0
v -128 -16 0
v -128 0 0
v -112 0 0
v -128 -16 0
v -144 -16 0
v -144 0 0
v -128 0 0
v -144 -16 0
v -160 -16 0
v -160 0 0
v -144 0 0
v -160 -16 0
v -176 -16 0
v -176 0 0
v -160 0 0
v -176 -16 0
v -192 -16 0
v -192 0 0
v -176 0 0
v -192 -16 0
v -208 -16 0
v -208 0 0
v -192 0 0
v -208 -16 0
v -224 -16 0
v -224 0 0
v -208 0 0
v -224 -16 0
v -240 -16 0
v -240 0 0
v -224 0 0
v -240 -16 0
v -256 -16 0
v -256 0 0
v -240 0 0
v -256 -16 0
v -272 -16 0
v -272 0 0
v -256 0 0
v -272 -16 0
v -288 -16 0
v -288 0 0
v -272 0 0
v -288 -16 0
v -304 -16 0
v -304 0 0
v -288 0 0
v -304 -16 0
v -320 -16 0
v -320 0 0
v -304 0 0
v 0 -32 0
v -16 -32 0
v -16 -16 0
v 0 -16 0
v -112 -32 0
v -128 -32 0
v -128 -16 0
v -112 -16 0
v -128 -32 0
v -144 -32 0
v -144 -16 0
v -128 -16 0
v -160 -32 0
v -176 -32 0
v -176 -16 0
v -160 -16 0
v -176 -32 0
v -192 -32 0
v -192 -16 0
v -176 -16 0
v -192 -32 0
v -208 -32 0
v -208 -16 0
v -192 -16 0
v -208 -32 0
v -224 -32 0
v -224 -16 0
v -208 -16 0
v -224 -32 0
v -240 -32 0
v -240 -16 0
v -224 -16 0
v -240 -32 0
v -256 -32 0
v -256 -16 0
v -240 -16 0
v -256 -32 0
v -272 -32 0
v -272 -16 0
v -256 -16 0
v -272 -32 0
v -288 -32 0
v -288 -16 0
v -272 -16 0
v -288 -32 0
v -304 -32 0
v -304 -16 0
v -288 -16 0
v -304 -32 0
v -320 -32 0
v -320 -16 0
v -304 -16 0
v 0 -48 0
v -16 -48 0
v -16 -32 0
v 0 -32 0
v -48 -48 0
v -64 -48 0
v -64 -32 0
v -48 -32 0
v -64 -48 0
v -80 -48 0
v -80 -32 0
v -64 -32 0
v -80 -48 0
v -96 -48 0
v -96 -32 0
v -80 -32 0
v -96 -48 0
v -112 -48 0
v -112 -32 0
v -96 -32 0
v -112 -48 0
v -128 -48 0
v -128 -32 0
v -112 -32 0
v -128 -48 0
v -144 -48 0
v -144 -32 0
v -128 -32 0
v -144 -48 0
v -160 -48 0
v -160 -32 0
v -144 -32 0
v -160 -48 0
v -176 -48 0
v -176 -32 0
v -160 -32 0
v -176 -48 0
v -192 -48 0
v -192 -32 0
v -176 -32 0
v -192 -48 0
v -208 -48 0
v -208 -32 0
v -192 -32 0
v -304 -48 0
v -320 -48 0
v -320 -32 0
v -304 -32 0
v 0 -64 0
v -16 -64 0
v -16 -48 0
v 0 -48 0
v -48 -64 0
v -64 -64 0
v -64 -48 0
v -48 -48 0
v -64 -64 0
v -80 -64 0
v -80 -48 0
v -64 -48 0
v -80 -64 0
v -96 -64 0
v -96 -48 0
v -80 -48 0
v -96 -64 0
v -112 -64 0
v -112 -48 0
v -96 -48 0
v -112 -64 0
v -128 -64 0
v -128 -48 0
v -112 -48 0
v -128 -64 0
v -144 -64 0
v -144 -48 0
v -128 -48 0
v -144 -64 0
v -160 -64 0
v -160 -48 0
v -144 -48 0
v -192 -64 0
v -208 -64 0
v -208 -48 0
v -192 -48 0
v -304 -64 0
v -320 -64 0
v -320 -48 0
v -304 -48 0
v 0 -80 0
v -16 -80 0
v -16 -64 0
v 0 -64 0
v -48 -80 0
v -64 -80 0
v -64 -64 0
v -48 -64 0
v -64 -80 0
v -80 -80 0
v -80 -64 0
v -64 -64 0
v -80 -80 0
v -96 -80 0
v -96 -64 0
v -80 -64 0
v -96 -80 0
v -112 -80 0
v -112 -64 0
v -96 -64 0
v -112 -80 0
v -128 -80 0
v -128 -64 0
v -112 -64 0
v -128 -80 0
v -144 -80 0
v -144 -64 0
v -128 -64 0
v -192 -80 0
v -208 -80 0
v -208 -64 0
v -192 -64 0
v -208 -80 0
v -224 -80 0
v -224 -64 0
v -208 -64 0
v -224 -80 0
v -240 -80 0
v -240 -64 0
v -224 -64 0
v -240 -80 0
v -256 -80 0
v -256 -64 0
v -240 -64 0
v -288 -80 0
v -304 -80 0
v -304 -64 0
v -288 -64 0
v -304 -80 0
v -320 -80 0
v -320 -64 0
v -304 -64 0
v -64 -96 0
v -80 -96 0
v -80 -80 0
v -64 -80 0
v -80 -96 0
v -96 -96 0
v -96 -80 0
v -80 -80 0
v -96 -96 0
v -112 -96 0
v -112 -80 0
v -96 -80 0
v -112 -96 0
v -128 -96 0
v -128 -80 0
v -112 -80 0
v -304 -96 0
v -320 -96 0
v -320 -80 0
v -304 -80 0
v -304 -112 0
v -320 -112 0
v -320 -96 0
v -304 -96 0
v -256 -128 0
v -272 -128 0
v -272 -112 0
v -256 -112 0
v -272 -128 0
v -288 -128 0
v -288 -112 0
v -272 -112 0
v -304 -128 0
v -320 -128 0
v -320 -112 0
v -304 -112 0
v -96 -144 0
v -112 -144 0
v -112 -128 0
v -96 -128 0
v -112 -144 0
v -128 -144 0
v -128 -128 0
v -112 -128 0
v -128 -144 0
v -144 -144 0
v -144 -128 0
v -128 -128 0
v -144 -144 0
v -160 -144 0
v -160 -128 0
v -144 -128 0
v -160 -144 0
v -176 -144 0
v -176 -128 0
v -160 -128 0
v -176 -144 0
v -192 -144 0
v -192 -128 0
v -176 -128 0
v -192 -144 0
v -208 -144 0
v -208 -128 0
v -192 -128 0
v -208 -144 0
v -224 -144 0
v -224 -128 0
v -208 -128 0
v -304 -144 0
v -320 -144 0
v -320 -128 0
v -304 -128 0
v 0 -160 0
v -16 -160 0
v -16 -144 0
v 0 -144 0
v -96 -160 0
v -112 -160 0
v -112 -144 0
v -96 -144 0
v -112 -160 0
v -128 -160 0
v -128 -144 0
v -112 -144 0
v -128 -160 0
v -144 -160 0
v -144 -144 0
v -128 -144 0
v -144 -160 0
v -160 -160 0
v -160 -144 0
v -144 -144 0
v -160 -160 0
v -176 -160 0
v -176 -144 0
v -160 -144 0
v -176 -160 0
v -192 -160 0
v -192 -144 0
v -176 -144 0
v -192 -160 0
v -208 -160 0
v -208 -144 0
v -192 -144 0
v -208 -160 0
v -224 -160 0
v -224 -144 0
v -208 -144 0
v -224 -160 0
v -240 -160 0
v -240 -144 0
v -224 -144 0
v -240 -160 0
v -256 -160 0
v -256 -144 0
v -240 -144 0
v -256 -160 0
v -272 -160 0
v -272 -144 0
v -256 -144 0
v -272 -160 0
v -288 -160 0
v -288 -144 0
v -272 -144 0
v -288 -160 0
v -304 -160 0
v -304 -144 0
v -288 -144 0
v -304 -160 0
v -320 -160 0
v -320 -144 0
v -304 -144 0
v 0 -176 0
v -16 -176 0
v -16 -160 0
v 0 -160 0
v -16 -176 0
v -32 -176 0
v -32 -160 0
v -16 -160 0
v -208 -176 0
v -224 -176 0
v -224 -160 0
v -208 -160 0
v -224 -176 0
v -240 -176 0
v -240 -160 0
v -224 -160 0
v -240 -176 0
v -256 -176 0
v -256 -160 0
v -240 -160 0
v -256 -176 0
v -272 -176 0
v -272 -160 0
v -256 -160 0
v -272 -176 0
v -288 -176 0
v -288 -160 0
v -272 -160 0
v -288 -176 0
v -304 -176 0
v -304 -160 0
v -288 -160 0
v 0 -192 0
v -16 -192 0
v -16 -176 0
v 0 -176 0
v -16 -192 0
v -32 -192 0
v -32 -176 0
v -16 -176 0
v -32 -192 0
v -48 -192 0
v -48 -176 0
v -32 -176 0
v -48 -192 0
v -64 -192 0
v -64 -176 0
v -48 -176 0
v -256 -192 0
v -272 -192 0
v -272 -176 0
v -256 -176 0
v -272 -192 0
v -288 -192 0
v -288 -176 0
v -272 -176 0
v -288 -192 0
v -304 -192 0
v -304 -176 0
v -288 -176 0
v -304 -192 0
v -320 -192 0
v -320 -176 0
v -304 -176 0
v 0 -208 0
v -16 -208 0
v -16 -192 0
v 0 -192 0
v -16 -208 0
v -32 -208 0
v -32 -192 0
v -16 -192 0
v -32 -208 0
v -48 -208 0
v -48 -192 0
v -32 -192 0
v -48 -208 0
v -64 -208 0
v -64 -192 0
v -48 -192 0
v -64 -208 0
v -80 -208 0
v -80 -192 0
v -64 -192 0
v -80 -208 0
v -96 -208 0
v -96 -192 0
v -80 -192 0
v -96 -208 0
v -112 -208 0
v -112 -192 0
v -96 -192 0
v -112 -208 0
v -128 -208 0
v -128 -192 0
v -112 -192 0
v -128 -208 0
v -144 -208 0
v -144 -192 0
v -128 -192 0
v -144 -208 0
v -160 -208 0
v -160 -192 0
v -144 -192 0
v -160 -208 0
v -176 -208 0
v -176 -192 0
v -160 -192 0
v 0 -224 0
v -16 -224 0
v -16 -208 0
v 0 -208 0
v -16 -224 0
v -32 -224 0
v -32 -208 0
v -16 -208 0
v -32 -224 0
v -48 -224 0
v -48 -208 0
v -32 -208 0
v -48 -224 0
v -64 -224 0
v -64 -208 0
v -48 -208 0
v -64 -224 0
v -80 -224 0
v -80 -208 0
v -64 -208 0
v -80 -224 0
v -96 -224 0
v -96 -208 0
v -80 -208 0
v -96 -224 0
v -112 -224 0
v -112 -208 0
v -96 -208 0
v -112 -224 0
v -128 -224 0
v -128 -208 0
v -112 -208 0
v -128 -224 0
v -144 -224 0
v -144 -208 0
v -128 -208 0
v -304 -224 0
v -320 -224 0
v -320 -208 0
v -304 -208 0
v 0 -240 0
v -16 -240 0
v -16 -224 0
v 0 -224 0
v -16 -240 0
v -32 -240 0
v -32 -224 0
v -16 -224 0
v -224 -240 0
v -240 -240 0
v -240 -224 0
v -224 -224 0
v -240 -240 0
v -256 -240 0
v -256 -224 0
v -240 -224 0
v -256 -240 0
v -272 -240 0
v -272 -224 0
v -256 -224 0
v -272 -240 0
v -288 -240 0
v -288 -224 0
v -272 -224 0
v -288 -240 0
v -304 -240 0
v -304 -224 0
v -288 -224 0
v -304 -240 0
v -320 -240 0
v -320 -224 0
v -304 -224 0
v 0 -256 0
v -16 -256 0
v -16 -240 0
v 0 -240 0
v -16 -256 0
v -32 -256 0
v -32 -240 0
v -16 -240 0
v -160 -256 0
v -176 -256 0
v -176 -240 0
v -160 -240 0
v -176 -256 0
v -192 -256 0
v -192 -240 0
v -176 -240 0
v -192 -256 0
v -208 -256 0
v -208 -240 0
v -192 -240 0
v -208 -256 0
v -224 -256 0
v -224 -240 0
v -208 -240 0
v -224 -256 0
v -240 -256 0
v -240 -240 0
v -224 -240 0
v -240 -256 0
v -256 -256 0
v -256 -240 0
v -240 -240 0
v -256 -256 0
v -272 -256 0
v -272 -240 0
v -256 -240 0
v -272 -256 0
v -288 -256 0
v -288 -240 0
v -272 -240 0
v -288 -256 0
v -304 -256 0
v -304 -240 0
v -288 -240 0
v -304 -256 0
v -320 -256 0
v -320 -240 0
v -304 -240 0
v 0 -272 0
v -16 -272 0
v -16 -256 0
v 0 -256 0
v -16 -272 0
v -32 -272 0
v -32 -256 0
v -16 -256 0
v -208 -272 0
v -224 -272 0
v -224 -256 0
v -208 -256 0
v -224 -272 0
v -240 -272 0
v -240 -256 0
v -224 -256 0
v -272 -272 0
v -288 -272 0
v -288 -256 0
v -272 -256 0
v -288 -272 0
v -304 -272 0
v -304 -256 0
v -288 -256 0
v -304 -272 0
v -320 -272 0
v -320 -256 0
v -304 -256 0
v 0 -288 0
v -16 -288 0
v -16 -272 0
v 0 -272 0
v -16 -288 0
v -32 -288 0
v -32 -272 0
v -16 -272 0
v -32 -288 0
v -48 -288 0
v -48 -272 0
v -32 -272 0
v -288 -288 0
v -304 -288 0
v -304 -272 0
v -288 -272 0
v 0 -304 0
v -16 -304 0
v -16 -288 0
v 0 -288 0
v -16 -304 0
v -32 -304 0
v -32 -288 0
v -16 -288 0
v -32 -304 0
v -48 -304 0
v -48 -288 0
v -32 -288 0
v -48 -304 0
v -64 -304 0
v -64 -288 0
v -48 -288 0
v -64 -304 0
v -80 -304 0
v -80 -288 0
v -64 -288 0
v -80 -304 0
v -96 -304 0
v -96 -288 0
v -80 -288 0
v -96 -304 0
v -112 -304 0
v -112 -288 0
v -96 -288 0
v -112 -304 0
v -128 -304 0
v -128 -288 0
v -112 -288 0
v -128 -304 0
v -144 -304 0
v -144 -288 0
v -128 -288 0
v -144 -304 0
v -160 -304 0
v -160 -288 0
v -144 -288 0
v -160 -304 0
v -176 -304 0
v -176 -288 0
v -160 -288 0
v -176 -304 0
v -192 -304 0
v -192 -288 0
v -176 -288 0
v -288 -304 0
v -304 -304 0
v -304 -288 0
v -288 -288 0
v -304 -304 0
v -320 -304 0
v -320 -288 0
v -304 -288 0
v 0 -320 0
v -16 -320 0
v -16 -304 0
v 0 -304 0
v -16 -320 0
v -32 -320 0
v -32 -304 0
v -16 -304 0
v -32 -320 0
v -48 -320 0
v -48 -304 0
v -32 -304 0
v -48 -320 0
v -64 -320 0
v -64 -304 0
v -48 -304 0
v -64 -320 0
v -80 -320 0
v -80 -304 0
v -64 -304 0
v -80 -320 0
v -96 -320 0
v -96 -304 0
v -80 -304 0
v -96 -320 0
v -112 -320 0
v -112 -304 0
v -96 -304 0
v -112 -320 0
v -128 -320 0
v -128 -304 0
v -112 -304 0
v -128 -320 0
v -144 -320 0
v -144 -304 0
v -128 -304 0
v -144 -320 0
v -160 -320 0
v -160 -304 0
v -144 -304 0
v -160 -320 0
v -176 -320 0
v -176 -304 0
v -160 -304 0
v -176 -320 0
v -192 -320 0
v -192 -304 0
v -176 -304 0
v -192 -320 0
v -208 -320 0
v -208 -304 0
v -192 -304 0
v -208 -320 0
v -224 -320 0
v -224 -304 0
v -208 -304 0
v -288 -320 0
v -304 -320 0
v -304 -304 0
v -288 -304 0
v -304 -320 0
v -320 -320 0
v -320 -304 0
v -304 -304 0

# Texture cooridinates (Count = 18)
vt 0.3055556 0.9722222
vt 0.3333333 0.9722222
vt 0.3333333 1
vt 0.3055556 1
vt 0.2222222 0.9722222
vt 0.25 0.9722222
vt 0.25 1
vt 0.2222222 1
vt 0.2777778 0.9722222
vt 0.2777778 1
vt 0.1666667 0.9444444
vt 0.1944444 0.9444444
vt 0.1944444 0.9722222
vt 0.1666667 0.9722222
vt 0.1111111 0.9722222
vt 0.1388889 0.9722222
vt 0.1388889 1
vt 0.1111111 1

# Normal
vn 0 0 -1

# Mesh description
g cave12-2300-4x4_mesh_0003

# Faces
f 1/1/1 2/2/1 3/3/1 4/4/1
f 5/1/1 6/2/1 7/3/1 8/4/1
f 9/5/1 10/6/1 11/7/1 12/8/1
f 13/1/1 14/2/1 15/3/1 16/4/1
f 17/1/1 18/2/1 19/3/1 20/4/1
f 21/1/1 22/2/1 23/3/1 24/4/1
f 25/6/1 26/9/1 27/10/1 28/7/1
f 29/1/1 30/2/1 31/3/1 32/4/1
f 33/1/1 34/2/1 35/3/1 36/4/1
f 37/6/1 38/9/1 39/10/1 40/7/1
f 41/1/1 42/2/1 43/3/1 44/4/1
f 45/1/1 46/2/1 47/3/1 48/4/1
f 49/6/1 50/9/1 51/10/1 52/7/1
f 53/6/1 54/9/1 55/10/1 56/7/1
f 57/11/1 58/12/1 59/13/1 60/14/1
f 61/11/1 62/12/1 63/13/1 64/14/1
f 65/1/1 66/2/1 67/3/1 68/4/1
f 69/1/1 70/2/1 71/3/1 72/4/1
f 73/1/1 74/2/1 75/3/1 76/4/1
f 77/6/1 78/9/1 79/10/1 80/7/1
f 81/6/1 82/9/1 83/10/1 84/7/1
f 85/15/1 86/16/1 87/17/1 88/18/1
f 89/15/1 90/16/1 91/17/1 92/18/1
f 93/15/1 94/16/1 95/17/1 96/18/1
f 97/15/1 98/16/1 99/17/1 100/18/1
f 101/15/1 102/16/1 103/17/1 104/18/1
f 105/15/1 106/16/1 107/17/1 108/18/1
f 109/15/1 110/16/1 111/17/1 112/18/1
f 113/15/1 114/16/1 115/17/1 116/18/1
f 117/1/1 118/2/1 119/3/1 120/4/1
f 121/1/1 122/2/1 123/3/1 124/4/1
f 125/6/1 126/9/1 127/10/1 128/7/1
f 129/1/1 130/2/1 131/3/1 132/4/1
f 133/1/1 134/2/1 135/3/1 136/4/1
f 137/15/1 138/16/1 139/17/1 140/18/1
f 141/15/1 142/16/1 143/17/1 144/18/1
f 145/15/1 146/16/1 147/17/1 148/18/1
f 149/15/1 150/16/1 151/17/1 152/18/1
f 153/15/1 154/16/1 155/17/1 156/18/1
f 157/15/1 158/16/1 159/17/1 160/18/1
f 161/15/1 162/16/1 163/17/1 164/18/1
f 165/6/1 166/9/1 167/10/1 168/7/1
f 169/1/1 170/2/1 171/3/1 172/4/1
f 173/15/1 174/16/1 175/17/1 176/18/1
f 177/15/1 178/16/1 179/17/1 180/18/1
f 181/15/1 182/16/1 183/17/1 184/18/1
f 185/15/1 186/16/1 187/17/1 188/18/1
f 189/15/1 190/16/1 191/17/1 192/18/1
f 193/15/1 194/16/1 195/17/1 196/18/1
f 197/15/1 198/16/1 199/17/1 200/18/1
f 201/15/1 202/16/1 203/17/1 204/18/1
f 205/1/1 206/2/1 207/3/1 208/4/1
f 209/1/1 210/2/1 211/3/1 212/4/1
f 213/15/1 214/16/1 215/17/1 216/18/1
f 217/11/1 218/12/1 219/13/1 220/14/1
f 221/11/1 222/12/1 223/13/1 224/14/1
f 225/15/1 226/16/1 227/17/1 228/18/1
f 229/15/1 230/16/1 231/17/1 232/18/1
f 233/15/1 234/16/1 235/17/1 236/18/1
f 237/15/1 238/16/1 239/17/1 240/18/1
f 241/15/1 242/16/1 243/17/1 244/18/1
f 245/15/1 246/16/1 247/17/1 248/18/1
f 249/15/1 250/16/1 251/17/1 252/18/1
f 253/15/1 254/16/1 255/17/1 256/18/1
f 257/15/1 258/16/1 259/17/1 260/18/1
f 261/15/1 262/16/1 263/17/1 264/18/1
f 265/15/1 266/16/1 267/17/1 268/18/1
f 269/15/1 270/16/1 271/17/1 272/18/1
f 273/15/1 274/16/1 275/17/1 276/18/1
f 277/15/1 278/16/1 279/17/1 280/18/1
f 281/15/1 282/16/1 283/17/1 284/18/1
f 285/15/1 286/16/1 287/17/1 288/18/1
f 289/15/1 290/16/1 291/17/1 292/18/1
f 293/1/1 294/2/1 295/3/1 296/4/1
f 297/1/1 298/2/1 299/3/1 300/4/1
f 301/15/1 302/16/1 303/17/1 304/18/1
f 305/15/1 306/16/1 307/17/1 308/18/1
f 309/15/1 310/16/1 311/17/1 312/18/1
f 313/15/1 314/16/1 315/17/1 316/18/1
f 317/15/1 318/16/1 319/17/1 320/18/1
f 321/15/1 322/16/1 323/17/1 324/18/1
f 325/15/1 326/16/1 327/17/1 328/18/1
f 329/1/1 330/2/1 331/3/1 332/4/1
f 333/1/1 334/2/1 335/3/1 336/4/1
f 337/1/1 338/2/1 339/3/1 340/4/1
f 341/1/1 342/2/1 343/3/1 344/4/1
f 345/1/1 346/2/1 347/3/1 348/4/1
f 349/1/1 350/2/1 351/3/1 352/4/1
f 353/6/1 354/9/1 355/10/1 356/7/1
f 357/1/1 358/2/1 359/3/1 360/4/1
f 361/1/1 362/2/1 363/3/1 364/4/1
f 365/1/1 366/2/1 367/3/1 368/4/1
f 369/15/1 370/16/1 371/17/1 372/18/1
f 373/11/1 374/12/1 375/13/1 376/14/1
f 377/15/1 378/16/1 379/17/1 380/18/1
f 381/15/1 382/16/1 383/17/1 384/18/1
f 385/15/1 386/16/1 387/17/1 388/18/1
f 389/6/1 390/9/1 391/10/1 392/7/1
f 393/1/1 394/2/1 395/3/1 396/4/1
f 397/1/1 398/2/1 399/3/1 400/4/1
f 401/1/1 402/2/1 403/3/1 404/4/1
f 405/1/1 406/2/1 407/3/1 408/4/1
f 409/6/1 410/9/1 411/10/1 412/7/1
f 413/6/1 414/9/1 415/10/1 416/7/1
f 417/15/1 418/16/1 419/17/1 420/18/1
f 421/6/1 422/9/1 423/10/1 424/7/1
f 425/1/1 426/2/1 427/3/1 428/4/1
f 429/1/1 430/2/1 431/3/1 432/4/1
f 433/1/1 434/2/1 435/3/1 436/4/1
f 437/1/1 438/2/1 439/3/1 440/4/1
f 441/6/1 442/9/1 443/10/1 444/7/1
f 445/1/1 446/2/1 447/3/1 448/4/1
f 449/1/1 450/2/1 451/3/1 452/4/1
f 453/1/1 454/2/1 455/3/1 456/4/1
f 457/15/1 458/16/1 459/17/1 460/18/1
f 461/15/1 462/16/1 463/17/1 464/18/1
f 465/15/1 466/16/1 467/17/1 468/18/1
f 469/15/1 470/16/1 471/17/1 472/18/1
f 473/15/1 474/16/1 475/17/1 476/18/1
f 477/15/1 478/16/1 479/17/1 480/18/1
f 481/15/1 482/16/1 483/17/1 484/18/1
f 485/1/1 486/2/1 487/3/1 488/4/1
f 489/5/1 490/6/1 491/7/1 492/8/1
f 493/5/1 494/6/1 495/7/1 496/8/1
f 497/1/1 498/2/1 499/3/1 500/4/1
f 501/15/1 502/16/1 503/17/1 504/18/1
f 505/15/1 506/16/1 507/17/1 508/18/1
f 509/11/1 510/12/1 511/13/1 512/14/1
f 513/11/1 514/12/1 515/13/1 516/14/1
f 517/15/1 518/16/1 519/17/1 520/18/1
f 521/15/1 522/16/1 523/17/1 524/18/1
f 525/11/1 526/12/1 527/13/1 528/14/1
f 529/15/1 530/16/1 531/17/1 532/18/1
f 533/1/1 534/2/1 535/3/1 536/4/1
f 537/6/1 538/9/1 539/10/1 540/7/1
f 541/15/1 542/16/1 543/17/1 544/18/1
f 545/1/1 546/2/1 547/3/1 548/4/1
f 549/1/1 550/2/1 551/3/1 552/4/1
f 553/1/1 554/2/1 555/3/1 556/4/1
f 557/1/1 558/2/1 559/3/1 560/4/1
f 561/1/1 562/2/1 563/3/1 564/4/1
f 565/1/1 566/2/1 567/3/1 568/4/1
f 569/6/1 570/9/1 571/10/1 572/7/1
f 573/15/1 574/16/1 575/17/1 576/18/1
f 577/5/1 578/6/1 579/7/1 580/8/1
f 581/5/1 582/6/1 583/7/1 584/8/1
f 585/5/1 586/6/1 587/7/1 588/8/1
f 589/1/1 590/2/1 591/3/1 592/4/1
f 593/1/1 594/2/1 595/3/1 596/4/1
f 597/1/1 598/2/1 599/3/1 600/4/1
f 601/6/1 602/9/1 603/10/1 604/7/1
f 605/1/1 606/2/1 607/3/1 608/4/1
f 609/6/1 610/9/1 611/10/1 612/7/1
f 613/1/1 614/2/1 615/3/1 616/4/1
f 617/6/1 618/9/1 619/10/1 620/7/1
f 621/15/1 622/16/1 623/17/1 624/18/1
f 625/1/1 626/2/1 627/3/1 628/4/1
f 629/1/1 630/2/1 631/3/1 632/4/1
f 633/1/1 634/2/1 635/3/1 636/4/1
f 637/6/1 638/9/1 639/10/1 640/7/1
f 641/6/1 642/9/1 643/10/1 644/7/1
f 645/15/1 646/16/1 647/17/1 648/18/1
f 649/15/1 650/16/1 651/17/1 652/18/1
f 653/15/1 654/16/1 655/17/1 656/18/1
f 657/1/1 658/2/1 659/3/1 660/4/1
f 661/15/1 662/16/1 663/17/1 664/18/1
f 665/15/1 666/16/1 667/17/1 668/18/1
f 669/15/1 670/16/1 671/17/1 672/18/1
f 673/15/1 674/16/1 675/17/1 676/18/1
f 677/15/1 678/16/1 679/17/1 680/18/1
f 681/15/1 682/16/1 683/17/1 684/18/1
f 685/15/1 686/16/1 687/17/1 688/18/1
f 689/15/1 690/16/1 691/17/1 692/18/1
f 693/15/1 694/16/1 695/17/1 696/18/1
f 697/15/1 698/16/1 699/17/1 700/18/1
f 701/15/1 702/16/1 703/17/1 704/18/1
f 705/15/1 706/16/1 707/17/1 708/18/1
f 709/1/1 710/2/1 711/3/1 712/4/1
f 713/1/1 714/2/1 715/3/1 716/4/1
f 717/1/1 718/2/1 719/3/1 720/4/1
f 721/1/1 722/2/1 723/3/1 724/4/1
f 725/1/1 726/2/1 727/3/1 728/4/1
f 729/6/1 730/9/1 731/10/1 732/7/1
f 733/6/1 734/9/1 735/10/1 736/7/1
f 737/1/1 738/2/1 739/3/1 740/4/1
f 741/6/1 742/9/1 743/10/1 744/7/1
f 745/15/1 746/16/1 747/17/1 748/18/1
f 749/15/1 750/16/1 751/17/1 752/18/1
f 753/15/1 754/16/1 755/17/1 756/18/1
f 757/15/1 758/16/1 759/17/1 760/18/1
f 761/1/1 762/2/1 763/3/1 764/4/1
f 765/6/1 766/9/1 767/10/1 768/7/1
f 769/1/1 770/2/1 771/3/1 772/4/1
f 773/1/1 774/2/1 775/3/1 776/4/1
f 777/6/1 778/9/1 779/10/1 780/7/1

