# Tiled2Unity generated file. Do not modify by hand.
# Wavefront file for 'mine9-7135-10x10_mesh_0007.obj'

# Vertices (Count = 12)
v -32 -112 0
v -48 -112 0
v -48 -96 0
v -32 -96 0
v -32 -128 0
v -48 -128 0
v -48 -112 0
v -32 -112 0
v -64 -128 0
v -80 -128 0
v -80 -112 0
v -64 -112 0

# Texture cooridinates (Count = 10)
vt 0.4722222 0.9722222
vt 0.5 0.9722222
vt 0.5 1
vt 0.4722222 1
vt 0.4722222 0.9444444
vt 0.5 0.9444444
vt 0.1944444 0.9722222
vt 0.2222222 0.9722222
vt 0.2222222 1
vt 0.1944444 1

# Normal
vn 0 0 -1

# Mesh description
g mine9-7135-10x10_mesh_0007

# Faces
f 1/1/1 2/2/1 3/3/1 4/4/1
f 5/5/1 6/6/1 7/2/1 8/1/1
f 9/7/1 10/8/1 11/9/1 12/10/1

