# Tiled2Unity generated file. Do not modify by hand.
# Wavefront file for 'mine9-7135-10x10_mesh_0002.obj'

# Vertices (Count = 72)
v -128 -16 0
v -144 -16 0
v -144 0 0
v -128 0 0
v -64 -32 0
v -80 -32 0
v -80 -16 0
v -64 -16 0
v -128 -32 0
v -144 -32 0
v -144 -16 0
v -128 -16 0
v -48 -48 0
v -64 -48 0
v -64 -32 0
v -48 -32 0
v -80 -48 0
v -96 -48 0
v -96 -32 0
v -80 -32 0
v -32 -64 0
v -48 -64 0
v -48 -48 0
v -32 -48 0
v -144 -80 0
v -160 -80 0
v -160 -64 0
v -144 -64 0
v 0 -96 0
v -16 -96 0
v -16 -80 0
v 0 -80 0
v -16 -96 0
v -32 -96 0
v -32 -80 0
v -16 -80 0
v -32 -96 0
v -48 -96 0
v -48 -80 0
v -32 -80 0
v -16 -112 0
v -32 -112 0
v -32 -96 0
v -16 -96 0
v -112 -112 0
v -128 -112 0
v -128 -96 0
v -112 -96 0
v -32 -128 0
v -48 -128 0
v -48 -112 0
v -32 -112 0
v -48 -128 0
v -64 -128 0
v -64 -112 0
v -48 -112 0
v -64 -128 0
v -80 -128 0
v -80 -112 0
v -64 -112 0
v -80 -128 0
v -96 -128 0
v -96 -112 0
v -80 -112 0
v -96 -128 0
v -112 -128 0
v -112 -112 0
v -96 -112 0
v -96 -144 0
v -112 -144 0
v -112 -128 0
v -96 -128 0

# Texture cooridinates (Count = 24)
vt 0.02777778 0.8333333
vt 0.05555556 0.8333333
vt 0.05555556 0.8611111
vt 0.02777778 0.8611111
vt 0 0.7777778
vt 0.02777778 0.7777778
vt 0.02777778 0.8055556
vt 0 0.8055556
vt 0.25 0.8333333
vt 0.2777778 0.8333333
vt 0.2777778 0.8611111
vt 0.25 0.8611111
vt 0.05555556 0.7777778
vt 0.08333334 0.7777778
vt 0.08333334 0.8055556
vt 0.05555556 0.8055556
vt 0 0.8333333
vt 0 0.8611111
vt 0.08333334 0.8333333
vt 0.08333334 0.8611111
vt 0.1666667 0.8333333
vt 0.1944444 0.8333333
vt 0.1944444 0.8611111
vt 0.1666667 0.8611111

# Normal
vn 0 0 -1

# Mesh description
g mine9-7135-10x10_mesh_0002

# Faces
f 1/1/1 2/2/1 3/3/1 4/4/1
f 5/5/1 6/6/1 7/7/1 8/8/1
f 9/9/1 10/10/1 11/11/1 12/12/1
f 13/1/1 14/2/1 15/3/1 16/4/1
f 17/9/1 18/10/1 19/11/1 20/12/1
f 21/5/1 22/6/1 23/7/1 24/8/1
f 25/13/1 26/14/1 27/15/1 28/16/1
f 29/5/1 30/6/1 31/7/1 32/8/1
f 33/17/1 34/1/1 35/4/1 36/18/1
f 37/17/1 38/1/1 39/4/1 40/18/1
f 41/17/1 42/1/1 43/4/1 44/18/1
f 45/2/1 46/19/1 47/20/1 48/3/1
f 49/6/1 50/13/1 51/16/1 52/7/1
f 53/2/1 54/19/1 55/20/1 56/3/1
f 57/5/1 58/6/1 59/7/1 60/8/1
f 61/21/1 62/22/1 63/23/1 64/24/1
f 65/13/1 66/14/1 67/15/1 68/16/1
f 69/21/1 70/22/1 71/23/1 72/24/1

