# Tiled2Unity generated file. Do not modify by hand.
# Wavefront file for 'caveroom5_mesh_0005.obj'

# Vertices (Count = 24)
v -32 -32 0
v -48 -32 0
v -48 -16 0
v -32 -16 0
v -48 -128 0
v -64 -128 0
v -64 -112 0
v -48 -112 0
v -96 -128 0
v -112 -128 0
v -112 -112 0
v -96 -112 0
v -112 -128 0
v -128 -128 0
v -128 -112 0
v -112 -112 0
v -96 -144 0
v -112 -144 0
v -112 -128 0
v -96 -128 0
v -112 -144 0
v -128 -144 0
v -128 -128 0
v -112 -128 0

# Texture cooridinates (Count = 11)
vt 0.4444444 0.9166667
vt 0.4722222 0.9166667
vt 0.4722222 0.9444444
vt 0.4444444 0.9444444
vt 0.4166667 0.9722222
vt 0.4444444 0.9722222
vt 0.4444444 1
vt 0.4166667 1
vt 0.4722222 0.9722222
vt 0.4722222 1
vt 0.4166667 0.9444444

# Normal
vn 0 0 -1

# Mesh description
g caveroom5_mesh_0005

# Faces
f 1/1/1 2/2/1 3/3/1 4/4/1
f 5/1/1 6/2/1 7/3/1 8/4/1
f 9/5/1 10/6/1 11/7/1 12/8/1
f 13/6/1 14/9/1 15/10/1 16/7/1
f 17/11/1 18/4/1 19/6/1 20/5/1
f 21/4/1 22/3/1 23/9/1 24/6/1

