# Tiled2Unity generated file. Do not modify by hand.
# Wavefront file for 'cave12-2300-4x4_mesh_0002.obj'

# Vertices (Count = 192)
v -192 -48 0
v -208 -48 0
v -208 -32 0
v -192 -32 0
v -208 -48 0
v -224 -48 0
v -224 -32 0
v -208 -32 0
v -224 -48 0
v -240 -48 0
v -240 -32 0
v -224 -32 0
v -240 -48 0
v -256 -48 0
v -256 -32 0
v -240 -32 0
v -256 -48 0
v -272 -48 0
v -272 -32 0
v -256 -32 0
v -272 -48 0
v -288 -48 0
v -288 -32 0
v -272 -32 0
v -288 -48 0
v -304 -48 0
v -304 -32 0
v -288 -32 0
v -304 -48 0
v -320 -48 0
v -320 -32 0
v -304 -32 0
v -144 -64 0
v -160 -64 0
v -160 -48 0
v -144 -48 0
v -160 -64 0
v -176 -64 0
v -176 -48 0
v -160 -48 0
v -176 -64 0
v -192 -64 0
v -192 -48 0
v -176 -48 0
v -192 -64 0
v -208 -64 0
v -208 -48 0
v -192 -48 0
v -288 -64 0
v -304 -64 0
v -304 -48 0
v -288 -48 0
v -128 -80 0
v -144 -80 0
v -144 -64 0
v -128 -64 0
v -144 -80 0
v -160 -80 0
v -160 -64 0
v -144 -64 0
v -128 -96 0
v -144 -96 0
v -144 -80 0
v -128 -80 0
v -192 -96 0
v -208 -96 0
v -208 -80 0
v -192 -80 0
v -208 -96 0
v -224 -96 0
v -224 -80 0
v -208 -80 0
v -224 -96 0
v -240 -96 0
v -240 -80 0
v -224 -80 0
v -240 -96 0
v -256 -96 0
v -256 -80 0
v -240 -80 0
v -288 -96 0
v -304 -96 0
v -304 -80 0
v -288 -80 0
v -304 -96 0
v -320 -96 0
v -320 -80 0
v -304 -80 0
v -96 -112 0
v -112 -112 0
v -112 -96 0
v -96 -96 0
v -112 -112 0
v -128 -112 0
v -128 -96 0
v -112 -96 0
v -128 -112 0
v -144 -112 0
v -144 -96 0
v -128 -96 0
v -48 -128 0
v -64 -128 0
v -64 -112 0
v -48 -112 0
v -144 -128 0
v -160 -128 0
v -160 -112 0
v -144 -112 0
v -288 -128 0
v -304 -128 0
v -304 -112 0
v -288 -112 0
v -48 -144 0
v -64 -144 0
v -64 -128 0
v -48 -128 0
v -64 -144 0
v -80 -144 0
v -80 -128 0
v -64 -128 0
v -80 -144 0
v -96 -144 0
v -96 -128 0
v -80 -128 0
v -256 -144 0
v -272 -144 0
v -272 -128 0
v -256 -128 0
v -288 -144 0
v -304 -144 0
v -304 -128 0
v -288 -128 0
v -64 -160 0
v -80 -160 0
v -80 -144 0
v -64 -144 0
v -80 -160 0
v -96 -160 0
v -96 -144 0
v -80 -144 0
v -192 -192 0
v -208 -192 0
v -208 -176 0
v -192 -176 0
v -208 -192 0
v -224 -192 0
v -224 -176 0
v -208 -176 0
v -208 -208 0
v -224 -208 0
v -224 -192 0
v -208 -192 0
v -272 -224 0
v -288 -224 0
v -288 -208 0
v -272 -208 0
v -288 -224 0
v -304 -224 0
v -304 -208 0
v -288 -208 0
v -80 -240 0
v -96 -240 0
v -96 -224 0
v -80 -224 0
v -112 -256 0
v -128 -256 0
v -128 -240 0
v -112 -240 0
v -160 -272 0
v -176 -272 0
v -176 -256 0
v -160 -256 0
v -176 -288 0
v -192 -288 0
v -192 -272 0
v -176 -272 0
v -224 -304 0
v -240 -304 0
v -240 -288 0
v -224 -288 0
v -240 -304 0
v -256 -304 0
v -256 -288 0
v -240 -288 0
v -256 -304 0
v -272 -304 0
v -272 -288 0
v -256 -288 0
v -256 -320 0
v -272 -320 0
v -272 -304 0
v -256 -304 0

# Texture cooridinates (Count = 24)
vt 0.1388889 0.9444444
vt 0.1666667 0.9444444
vt 0.1666667 0.9722222
vt 0.1388889 0.9722222
vt 0.1666667 0.8888889
vt 0.1944444 0.8888889
vt 0.1944444 0.9166667
vt 0.1666667 0.9166667
vt 0 0.9444444
vt 0.02777778 0.9444444
vt 0.02777778 0.9722222
vt 0 0.9722222
vt 0.02777778 0.9166667
vt 0.05555556 0.9166667
vt 0.05555556 0.9444444
vt 0.05555556 0.9722222
vt 0.05555556 1
vt 0.02777778 1
vt 0.08333334 0.9444444
vt 0.08333334 0.9722222
vt 0.2222222 0.8888889
vt 0.2222222 0.9166667
vt 0.08333334 0.9166667
vt 0 0.9166667

# Normal
vn 0 0 -1

# Mesh description
g cave12-2300-4x4_mesh_0002

# Faces
f 1/1/1 2/2/1 3/3/1 4/4/1
f 5/1/1 6/2/1 7/3/1 8/4/1
f 9/1/1 10/2/1 11/3/1 12/4/1
f 13/1/1 14/2/1 15/3/1 16/4/1
f 17/1/1 18/2/1 19/3/1 20/4/1
f 21/1/1 22/2/1 23/3/1 24/4/1
f 25/1/1 26/2/1 27/3/1 28/4/1
f 29/1/1 30/2/1 31/3/1 32/4/1
f 33/1/1 34/2/1 35/3/1 36/4/1
f 37/1/1 38/2/1 39/3/1 40/4/1
f 41/1/1 42/2/1 43/3/1 44/4/1
f 45/1/1 46/2/1 47/3/1 48/4/1
f 49/5/1 50/6/1 51/7/1 52/8/1
f 53/1/1 54/2/1 55/3/1 56/4/1
f 57/1/1 58/2/1 59/3/1 60/4/1
f 61/1/1 62/2/1 63/3/1 64/4/1
f 65/1/1 66/2/1 67/3/1 68/4/1
f 69/1/1 70/2/1 71/3/1 72/4/1
f 73/1/1 74/2/1 75/3/1 76/4/1
f 77/1/1 78/2/1 79/3/1 80/4/1
f 81/1/1 82/2/1 83/3/1 84/4/1
f 85/1/1 86/2/1 87/3/1 88/4/1
f 89/9/1 90/10/1 91/11/1 92/12/1
f 93/13/1 94/14/1 95/15/1 96/10/1
f 97/9/1 98/10/1 99/11/1 100/12/1
f 101/11/1 102/16/1 103/17/1 104/18/1
f 105/5/1 106/6/1 107/7/1 108/8/1
f 109/9/1 110/10/1 111/11/1 112/12/1
f 113/9/1 114/10/1 115/11/1 116/12/1
f 117/15/1 118/19/1 119/20/1 120/16/1
f 121/11/1 122/16/1 123/17/1 124/18/1
f 125/6/1 126/21/1 127/22/1 128/7/1
f 129/14/1 130/23/1 131/19/1 132/15/1
f 133/13/1 134/14/1 135/15/1 136/10/1
f 137/11/1 138/16/1 139/17/1 140/18/1
f 141/9/1 142/10/1 143/11/1 144/12/1
f 145/15/1 146/19/1 147/20/1 148/16/1
f 149/13/1 150/14/1 151/15/1 152/10/1
f 153/24/1 154/13/1 155/10/1 156/9/1
f 157/15/1 158/19/1 159/20/1 160/16/1
f 161/13/1 162/14/1 163/15/1 164/10/1
f 165/6/1 166/21/1 167/22/1 168/7/1
f 169/6/1 170/21/1 171/22/1 172/7/1
f 173/15/1 174/19/1 175/20/1 176/16/1
f 177/9/1 178/10/1 179/11/1 180/12/1
f 181/9/1 182/10/1 183/11/1 184/12/1
f 185/15/1 186/19/1 187/20/1 188/16/1
f 189/13/1 190/14/1 191/15/1 192/10/1

