# Tiled2Unity generated file. Do not modify by hand.
# Wavefront file for 'mine3-2477-10x10_mesh_0005.obj'

# Vertices (Count = 176)
v 0 -32 0
v -16 -32 0
v -16 -16 0
v 0 -16 0
v -32 -32 0
v -48 -32 0
v -48 -16 0
v -32 -16 0
v -48 -32 0
v -64 -32 0
v -64 -16 0
v -48 -16 0
v -96 -32 0
v -112 -32 0
v -112 -16 0
v -96 -16 0
v -32 -48 0
v -48 -48 0
v -48 -32 0
v -32 -32 0
v -48 -48 0
v -64 -48 0
v -64 -32 0
v -48 -32 0
v -128 -48 0
v -144 -48 0
v -144 -32 0
v -128 -32 0
v -16 -64 0
v -32 -64 0
v -32 -48 0
v -16 -48 0
v -32 -64 0
v -48 -64 0
v -48 -48 0
v -32 -48 0
v -48 -64 0
v -64 -64 0
v -64 -48 0
v -48 -48 0
v -32 -80 0
v -48 -80 0
v -48 -64 0
v -32 -64 0
v -48 -80 0
v -64 -80 0
v -64 -64 0
v -48 -64 0
v -80 -80 0
v -96 -80 0
v -96 -64 0
v -80 -64 0
v -96 -80 0
v -112 -80 0
v -112 -64 0
v -96 -64 0
v -112 -80 0
v -128 -80 0
v -128 -64 0
v -112 -64 0
v -128 -80 0
v -144 -80 0
v -144 -64 0
v -128 -64 0
v -32 -96 0
v -48 -96 0
v -48 -80 0
v -32 -80 0
v -48 -96 0
v -64 -96 0
v -64 -80 0
v -48 -80 0
v -64 -96 0
v -80 -96 0
v -80 -80 0
v -64 -80 0
v -80 -96 0
v -96 -96 0
v -96 -80 0
v -80 -80 0
v -96 -96 0
v -112 -96 0
v -112 -80 0
v -96 -80 0
v -112 -96 0
v -128 -96 0
v -128 -80 0
v -112 -80 0
v -32 -112 0
v -48 -112 0
v -48 -96 0
v -32 -96 0
v -16 -128 0
v -32 -128 0
v -32 -112 0
v -16 -112 0
v -32 -128 0
v -48 -128 0
v -48 -112 0
v -32 -112 0
v -64 -128 0
v -80 -128 0
v -80 -112 0
v -64 -112 0
v -80 -128 0
v -96 -128 0
v -96 -112 0
v -80 -112 0
v -96 -128 0
v -112 -128 0
v -112 -112 0
v -96 -112 0
v -112 -128 0
v -128 -128 0
v -128 -112 0
v -112 -112 0
v -128 -128 0
v -144 -128 0
v -144 -112 0
v -128 -112 0
v -144 -128 0
v -160 -128 0
v -160 -112 0
v -144 -112 0
v 0 -144 0
v -16 -144 0
v -16 -128 0
v 0 -128 0
v -16 -144 0
v -32 -144 0
v -32 -128 0
v -16 -128 0
v -32 -144 0
v -48 -144 0
v -48 -128 0
v -32 -128 0
v -64 -144 0
v -80 -144 0
v -80 -128 0
v -64 -128 0
v -80 -144 0
v -96 -144 0
v -96 -128 0
v -80 -128 0
v -96 -144 0
v -112 -144 0
v -112 -128 0
v -96 -128 0
v -112 -144 0
v -128 -144 0
v -128 -128 0
v -112 -128 0
v -128 -144 0
v -144 -144 0
v -144 -128 0
v -128 -128 0
v -144 -144 0
v -160 -144 0
v -160 -128 0
v -144 -128 0
v -16 -160 0
v -32 -160 0
v -32 -144 0
v -16 -144 0
v -80 -160 0
v -96 -160 0
v -96 -144 0
v -80 -144 0
v -96 -160 0
v -112 -160 0
v -112 -144 0
v -96 -144 0
v -112 -160 0
v -128 -160 0
v -128 -144 0
v -112 -144 0

# Texture cooridinates (Count = 31)
vt 0.3055556 0.7777778
vt 0.3333333 0.7777778
vt 0.3333333 0.8055556
vt 0.3055556 0.8055556
vt 0.3611111 0.8055556
vt 0.3888889 0.8055556
vt 0.3888889 0.8333333
vt 0.3611111 0.8333333
vt 0.2222222 0.8055556
vt 0.25 0.8055556
vt 0.25 0.8333333
vt 0.2222222 0.8333333
vt 0.4722222 0.8333333
vt 0.4444444 0.8333333
vt 0.4444444 0.8611111
vt 0.4722222 0.8611111
vt 0.4722222 0.8055556
vt 0.5 0.8055556
vt 0.5 0.8333333
vt 0.3888889 0.8611111
vt 0.3611111 0.8611111
vt 0.5 0.8611111
vt 0.3333333 0.8333333
vt 0.3333333 0.8611111
vt 0.3055556 0.8333333
vt 0.3055556 0.8611111
vt 0.25 0.8611111
vt 0.2222222 0.8611111
vt 0.2777778 0.75
vt 0.3055556 0.75
vt 0.2777778 0.7777778

# Normal
vn 0 0 -1

# Mesh description
g mine3-2477-10x10_mesh_0005

# Faces
f 1/1/1 2/2/1 3/3/1 4/4/1
f 5/5/1 6/6/1 7/7/1 8/8/1
f 9/9/1 10/10/1 11/11/1 12/12/1
f 13/13/1 14/14/1 15/15/1 16/16/1
f 17/9/1 18/10/1 19/11/1 20/12/1
f 21/9/1 22/10/1 23/11/1 24/12/1
f 25/9/1 26/10/1 27/11/1 28/12/1
f 29/17/1 30/18/1 31/19/1 32/13/1
f 33/9/1 34/10/1 35/11/1 36/12/1
f 37/9/1 38/10/1 39/11/1 40/12/1
f 41/9/1 42/10/1 43/11/1 44/12/1
f 45/9/1 46/10/1 47/11/1 48/12/1
f 49/8/1 50/7/1 51/20/1 52/21/1
f 53/13/1 54/19/1 55/22/1 56/16/1
f 57/5/1 58/6/1 59/7/1 60/8/1
f 61/9/1 62/10/1 63/11/1 64/12/1
f 65/9/1 66/10/1 67/11/1 68/12/1
f 69/23/1 70/8/1 71/21/1 72/24/1
f 73/25/1 74/23/1 75/24/1 76/26/1
f 77/25/1 78/23/1 79/24/1 80/26/1
f 81/25/1 82/23/1 83/24/1 84/26/1
f 85/25/1 86/23/1 87/24/1 88/26/1
f 89/9/1 90/10/1 91/11/1 92/12/1
f 93/12/1 94/11/1 95/27/1 96/28/1
f 97/9/1 98/10/1 99/11/1 100/12/1
f 101/12/1 102/11/1 103/27/1 104/28/1
f 105/12/1 106/11/1 107/27/1 108/28/1
f 109/12/1 110/11/1 111/27/1 112/28/1
f 113/12/1 114/11/1 115/27/1 116/28/1
f 117/12/1 118/11/1 119/27/1 120/28/1
f 121/9/1 122/10/1 123/11/1 124/12/1
f 125/29/1 126/30/1 127/1/1 128/31/1
f 129/12/1 130/11/1 131/27/1 132/28/1
f 133/9/1 134/10/1 135/11/1 136/12/1
f 137/12/1 138/11/1 139/27/1 140/28/1
f 141/12/1 142/11/1 143/27/1 144/28/1
f 145/12/1 146/11/1 147/27/1 148/28/1
f 149/12/1 150/11/1 151/27/1 152/28/1
f 153/12/1 154/11/1 155/27/1 156/28/1
f 157/12/1 158/11/1 159/27/1 160/28/1
f 161/12/1 162/11/1 163/27/1 164/28/1
f 165/12/1 166/11/1 167/27/1 168/28/1
f 169/9/1 170/10/1 171/11/1 172/12/1
f 173/9/1 174/10/1 175/11/1 176/12/1

