# Tiled2Unity generated file. Do not modify by hand.
# Wavefront file for 'mine3-2477-10x10_mesh_0007.obj'

# Vertices (Count = 24)
v -80 -32 0
v -96 -32 0
v -96 -16 0
v -80 -16 0
v -16 -80 0
v -32 -80 0
v -32 -64 0
v -16 -64 0
v -16 -96 0
v -32 -96 0
v -32 -80 0
v -16 -80 0
v -128 -96 0
v -144 -96 0
v -144 -80 0
v -128 -80 0
v -80 -144 0
v -96 -144 0
v -96 -128 0
v -80 -128 0
v -112 -144 0
v -128 -144 0
v -128 -128 0
v -112 -128 0

# Texture cooridinates (Count = 14)
vt 0.8611111 0.9722222
vt 0.8888889 0.9722222
vt 0.8888889 1
vt 0.8611111 1
vt 0.4722222 0.9722222
vt 0.5 0.9722222
vt 0.5 1
vt 0.4722222 1
vt 0.4722222 0.9444444
vt 0.5 0.9444444
vt 0.1944444 0.9722222
vt 0.2222222 0.9722222
vt 0.2222222 1
vt 0.1944444 1

# Normal
vn 0 0 -1

# Mesh description
g mine3-2477-10x10_mesh_0007

# Faces
f 1/1/1 2/2/1 3/3/1 4/4/1
f 5/5/1 6/6/1 7/7/1 8/8/1
f 9/9/1 10/10/1 11/6/1 12/5/1
f 13/11/1 14/12/1 15/13/1 16/14/1
f 17/11/1 18/12/1 19/13/1 20/14/1
f 21/11/1 22/12/1 23/13/1 24/14/1

