# Tiled2Unity generated file. Do not modify by hand.
# Wavefront file for 'object-test_mesh_0003.obj'

# Vertices (Count = 20)
v -80 -128 0
v -96 -128 0
v -96 -112 0
v -80 -112 0
v -96 -128 0
v -112 -128 0
v -112 -112 0
v -96 -112 0
v -112 -128 0
v -128 -128 0
v -128 -112 0
v -112 -112 0
v -128 -128 0
v -144 -128 0
v -144 -112 0
v -128 -112 0
v -144 -128 0
v -160 -128 0
v -160 -112 0
v -144 -112 0

# Texture cooridinates (Count = 4)
vt 0.4444444 0.8888889
vt 0.4722222 0.8888889
vt 0.4722222 0.9166667
vt 0.4444444 0.9166667

# Normal
vn 0 0 -1

# Mesh description
g object-test_mesh_0003

# Faces
f 1/1/1 2/2/1 3/3/1 4/4/1
f 5/1/1 6/2/1 7/3/1 8/4/1
f 9/1/1 10/2/1 11/3/1 12/4/1
f 13/1/1 14/2/1 15/3/1 16/4/1
f 17/1/1 18/2/1 19/3/1 20/4/1

