# Tiled2Unity generated file. Do not modify by hand.
# Wavefront file for 'caveroom5_mesh_0007.obj'

# Vertices (Count = 12)
v -16 -96 0
v -32 -96 0
v -32 -80 0
v -16 -80 0
v -48 -96 0
v -64 -96 0
v -64 -80 0
v -48 -80 0
v -128 -96 0
v -144 -96 0
v -144 -80 0
v -128 -80 0

# Texture cooridinates (Count = 10)
vt 0.3888889 0.9166667
vt 0.4166667 0.9166667
vt 0.4166667 0.9444444
vt 0.3888889 0.9444444
vt 0.4444444 0.9166667
vt 0.4444444 0.9444444
vt 0.4722222 0.9166667
vt 0.5 0.9166667
vt 0.5 0.9444444
vt 0.4722222 0.9444444

# Normal
vn 0 0 -1

# Mesh description
g caveroom5_mesh_0007

# Faces
f 1/1/1 2/2/1 3/3/1 4/4/1
f 5/2/1 6/5/1 7/6/1 8/3/1
f 9/7/1 10/8/1 11/9/1 12/10/1

