# Tiled2Unity generated file. Do not modify by hand.
# Wavefront file for 'caveroom5_mesh_0006.obj'

# Vertices (Count = 36)
v -48 -16 0
v -64 -16 0
v -64 0 0
v -48 0 0
v -96 -16 0
v -112 -16 0
v -112 0 0
v -96 0 0
v -80 -48 0
v -96 -48 0
v -96 -32 0
v -80 -32 0
v -48 -80 0
v -64 -80 0
v -64 -64 0
v -48 -64 0
v -80 -80 0
v -96 -80 0
v -96 -64 0
v -80 -64 0
v -112 -80 0
v -128 -80 0
v -128 -64 0
v -112 -64 0
v -80 -112 0
v -96 -112 0
v -96 -96 0
v -80 -96 0
v -48 -160 0
v -64 -160 0
v -64 -144 0
v -48 -144 0
v -96 -160 0
v -112 -160 0
v -112 -144 0
v -96 -144 0

# Texture cooridinates (Count = 8)
vt 0.1111111 0.9166667
vt 0.1388889 0.9166667
vt 0.1388889 0.9444444
vt 0.1111111 0.9444444
vt 0.4444444 0.8888889
vt 0.4722222 0.8888889
vt 0.4722222 0.9166667
vt 0.4444444 0.9166667

# Normal
vn 0 0 -1

# Mesh description
g caveroom5_mesh_0006

# Faces
f 1/1/1 2/2/1 3/3/1 4/4/1
f 5/1/1 6/2/1 7/3/1 8/4/1
f 9/1/1 10/2/1 11/3/1 12/4/1
f 13/1/1 14/2/1 15/3/1 16/4/1
f 17/1/1 18/2/1 19/3/1 20/4/1
f 21/1/1 22/2/1 23/3/1 24/4/1
f 25/1/1 26/2/1 27/3/1 28/4/1
f 29/5/1 30/6/1 31/7/1 32/8/1
f 33/5/1 34/6/1 35/7/1 36/8/1

