# Tiled2Unity generated file. Do not modify by hand.
# Wavefront file for 'caveroom5_mesh_0003.obj'

# Vertices (Count = 176)
v 0 -16 0
v -16 -16 0
v -16 0 0
v 0 0 0
v -16 -16 0
v -32 -16 0
v -32 0 0
v -16 0 0
v -32 -16 0
v -48 -16 0
v -48 0 0
v -32 0 0
v -64 -16 0
v -80 -16 0
v -80 0 0
v -64 0 0
v -80 -16 0
v -96 -16 0
v -96 0 0
v -80 0 0
v -112 -16 0
v -128 -16 0
v -128 0 0
v -112 0 0
v -128 -16 0
v -144 -16 0
v -144 0 0
v -128 0 0
v -144 -16 0
v -160 -16 0
v -160 0 0
v -144 0 0
v 0 -32 0
v -16 -32 0
v -16 -16 0
v 0 -16 0
v -48 -32 0
v -64 -32 0
v -64 -16 0
v -48 -16 0
v -144 -32 0
v -160 -32 0
v -160 -16 0
v -144 -16 0
v 0 -48 0
v -16 -48 0
v -16 -32 0
v 0 -32 0
v -64 -48 0
v -80 -48 0
v -80 -32 0
v -64 -32 0
v -96 -48 0
v -112 -48 0
v -112 -32 0
v -96 -32 0
v -144 -48 0
v -160 -48 0
v -160 -32 0
v -144 -32 0
v 0 -64 0
v -16 -64 0
v -16 -48 0
v 0 -48 0
v -64 -64 0
v -80 -64 0
v -80 -48 0
v -64 -48 0
v -96 -64 0
v -112 -64 0
v -112 -48 0
v -96 -48 0
v -144 -64 0
v -160 -64 0
v -160 -48 0
v -144 -48 0
v 0 -80 0
v -16 -80 0
v -16 -64 0
v 0 -64 0
v -64 -80 0
v -80 -80 0
v -80 -64 0
v -64 -64 0
v -96 -80 0
v -112 -80 0
v -112 -64 0
v -96 -64 0
v -144 -80 0
v -160 -80 0
v -160 -64 0
v -144 -64 0
v 0 -96 0
v -16 -96 0
v -16 -80 0
v 0 -80 0
v -64 -96 0
v -80 -96 0
v -80 -80 0
v -64 -80 0
v -96 -96 0
v -112 -96 0
v -112 -80 0
v -96 -80 0
v -144 -96 0
v -160 -96 0
v -160 -80 0
v -144 -80 0
v 0 -112 0
v -16 -112 0
v -16 -96 0
v 0 -96 0
v -16 -112 0
v -32 -112 0
v -32 -96 0
v -16 -96 0
v -32 -112 0
v -48 -112 0
v -48 -96 0
v -32 -96 0
v -48 -112 0
v -64 -112 0
v -64 -96 0
v -48 -96 0
v -64 -112 0
v -80 -112 0
v -80 -96 0
v -64 -96 0
v -96 -112 0
v -112 -112 0
v -112 -96 0
v -96 -96 0
v -112 -112 0
v -128 -112 0
v -128 -96 0
v -112 -96 0
v -128 -112 0
v -144 -112 0
v -144 -96 0
v -128 -96 0
v -144 -112 0
v -160 -112 0
v -160 -96 0
v -144 -96 0
v 0 -160 0
v -16 -160 0
v -16 -144 0
v 0 -144 0
v -16 -160 0
v -32 -160 0
v -32 -144 0
v -16 -144 0
v -32 -160 0
v -48 -160 0
v -48 -144 0
v -32 -144 0
v -64 -160 0
v -80 -160 0
v -80 -144 0
v -64 -144 0
v -80 -160 0
v -96 -160 0
v -96 -144 0
v -80 -144 0
v -112 -160 0
v -128 -160 0
v -128 -144 0
v -112 -144 0
v -128 -160 0
v -144 -160 0
v -144 -144 0
v -128 -144 0
v -144 -160 0
v -160 -160 0
v -160 -144 0
v -144 -144 0

# Texture cooridinates (Count = 13)
vt 0.1111111 0.9722222
vt 0.1388889 0.9722222
vt 0.1388889 1
vt 0.1111111 1
vt 0.1666667 0.9722222
vt 0.1666667 1
vt 0.1666667 0.9444444
vt 0.1944444 0.9444444
vt 0.1944444 0.9722222
vt 0.3055556 0.9722222
vt 0.3333333 0.9722222
vt 0.3333333 1
vt 0.3055556 1

# Normal
vn 0 0 -1

# Mesh description
g caveroom5_mesh_0003

# Faces
f 1/1/1 2/2/1 3/3/1 4/4/1
f 5/1/1 6/2/1 7/3/1 8/4/1
f 9/1/1 10/2/1 11/3/1 12/4/1
f 13/1/1 14/2/1 15/3/1 16/4/1
f 17/1/1 18/2/1 19/3/1 20/4/1
f 21/1/1 22/2/1 23/3/1 24/4/1
f 25/1/1 26/2/1 27/3/1 28/4/1
f 29/1/1 30/2/1 31/3/1 32/4/1
f 33/1/1 34/2/1 35/3/1 36/4/1
f 37/2/1 38/5/1 39/6/1 40/3/1
f 41/1/1 42/2/1 43/3/1 44/4/1
f 45/1/1 46/2/1 47/3/1 48/4/1
f 49/1/1 50/2/1 51/3/1 52/4/1
f 53/1/1 54/2/1 55/3/1 56/4/1
f 57/1/1 58/2/1 59/3/1 60/4/1
f 61/1/1 62/2/1 63/3/1 64/4/1
f 65/1/1 66/2/1 67/3/1 68/4/1
f 69/1/1 70/2/1 71/3/1 72/4/1
f 73/1/1 74/2/1 75/3/1 76/4/1
f 77/1/1 78/2/1 79/3/1 80/4/1
f 81/1/1 82/2/1 83/3/1 84/4/1
f 85/1/1 86/2/1 87/3/1 88/4/1
f 89/1/1 90/2/1 91/3/1 92/4/1
f 93/1/1 94/2/1 95/3/1 96/4/1
f 97/1/1 98/2/1 99/3/1 100/4/1
f 101/1/1 102/2/1 103/3/1 104/4/1
f 105/1/1 106/2/1 107/3/1 108/4/1
f 109/1/1 110/2/1 111/3/1 112/4/1
f 113/7/1 114/8/1 115/9/1 116/5/1
f 117/7/1 118/8/1 119/9/1 120/5/1
f 121/7/1 122/8/1 123/9/1 124/5/1
f 125/1/1 126/2/1 127/3/1 128/4/1
f 129/1/1 130/2/1 131/3/1 132/4/1
f 133/7/1 134/8/1 135/9/1 136/5/1
f 137/7/1 138/8/1 139/9/1 140/5/1
f 141/1/1 142/2/1 143/3/1 144/4/1
f 145/10/1 146/11/1 147/12/1 148/13/1
f 149/10/1 150/11/1 151/12/1 152/13/1
f 153/10/1 154/11/1 155/12/1 156/13/1
f 157/10/1 158/11/1 159/12/1 160/13/1
f 161/10/1 162/11/1 163/12/1 164/13/1
f 165/10/1 166/11/1 167/12/1 168/13/1
f 169/10/1 170/11/1 171/12/1 172/13/1
f 173/10/1 174/11/1 175/12/1 176/13/1

