# Tiled2Unity generated file. Do not modify by hand.
# Wavefront file for 'caveroom10_mesh_0005.obj'

# Vertices (Count = 24)
v -32 -32 0
v -48 -32 0
v -48 -16 0
v -32 -16 0
v -16 -64 0
v -32 -64 0
v -32 -48 0
v -16 -48 0
v -48 -96 0
v -64 -96 0
v -64 -80 0
v -48 -80 0
v -128 -96 0
v -144 -96 0
v -144 -80 0
v -128 -80 0
v -144 -96 0
v -160 -96 0
v -160 -80 0
v -144 -80 0
v -96 -128 0
v -112 -128 0
v -112 -112 0
v -96 -112 0

# Texture cooridinates (Count = 11)
vt 0.3888889 0.9722222
vt 0.4166667 0.9722222
vt 0.4166667 1
vt 0.3888889 1
vt 0.4444444 0.9444444
vt 0.4722222 0.9444444
vt 0.4722222 0.9722222
vt 0.4444444 0.9722222
vt 0.4444444 0.9166667
vt 0.4722222 0.9166667
vt 0.4444444 1

# Normal
vn 0 0 -1

# Mesh description
g caveroom10_mesh_0005

# Faces
f 1/1/1 2/2/1 3/3/1 4/4/1
f 5/5/1 6/6/1 7/7/1 8/8/1
f 9/9/1 10/10/1 11/6/1 12/5/1
f 13/2/1 14/8/1 15/11/1 16/3/1
f 17/5/1 18/6/1 19/7/1 20/8/1
f 21/5/1 22/6/1 23/7/1 24/8/1

